<svg width="112" height="112" viewBox="0 0 112 112" fill="none" xmlns="http://www.w3.org/2000/svg">
	<path fill="#0358AD"
		d="M35.2966 93.7078L53.2966 48H55.9666L54.6266 58.72H56.6266L57.9684 48H60.7966L67.2966 93.7078L52.0392 87.7539L35.2966 93.7078Z" />
	<path fill="#0358AD"
		d="M66.7023 18.3009L62.0944 58.0069C62.0877 58.0652 62.0874 58.122 62.0907 58.1775C60.2664 58.4943 58.4372 58.6764 56.6212 58.724L61.7033 18.2932L61.7034 18.2922H66.7034C66.7031 18.2951 66.7027 18.298 66.7023 18.3009ZM54.6214 58.7221C52.9053 58.6731 51.2077 58.5031 49.5446 58.2104C49.5678 58.1432 49.5858 58.0737 49.595 58.0021L54.703 18.2961C54.7031 18.2948 54.7033 18.2935 54.7034 18.2922H59.7034L54.6214 58.7221ZM47.6187 57.8121C46.0214 57.4332 44.4635 56.9375 42.9594 56.3256L47.7034 18.2922H52.7034L47.6187 57.8121ZM73.7034 18.2922L68.9594 56.3256C67.3656 56.9142 65.749 57.3955 64.1222 57.7685L68.7034 18.2922H73.7034ZM45.7034 18.2922L41.0649 55.4796C39.4326 54.6818 37.8769 53.7371 36.4183 52.6461L40.7034 18.2922H45.7034ZM80.7034 18.2922L76.4183 52.6461C74.6876 53.7371 72.8963 54.6818 71.0649 55.4796L75.7034 18.2922H80.7034ZM38.7034 18.2922L34.6029 51.1664C32.9804 49.7272 31.507 48.0834 30.2182 46.2339L33.7034 18.2922H38.7034ZM87.7034 18.2922L84.2182 46.2339C82.468 48.0834 80.5845 49.7272 78.6029 51.1664L82.7034 18.2922H87.7034ZM31.7034 18.2922L28.5542 43.5399C27.4582 41.5281 26.5558 39.317 25.8846 36.9058L20.7034 18.2922H31.7034ZM90.8788 36.9058C89.606 39.317 88.1521 41.5281 86.5542 43.5399L89.7034 18.2922H100.703L90.8788 36.9058Z" />
</svg>
