<svg width="548" height="112" viewBox="0 0 548 112" fill="none" xmlns="http://www.w3.org/2000/svg">
	<path fill="white"
		d="M40 93.7078L58 48H60.67L59.33 58.72H61.33L62.6719 48H65.5L72 93.7078L56.7426 87.7539L40 93.7078Z" />
	<path fill="white"
		d="M71.4058 18.3009L66.7978 58.0069C66.7911 58.0652 66.7908 58.122 66.7941 58.1775C64.9699 58.4943 63.1406 58.6764 61.3246 58.724L66.4068 18.2932L66.4069 18.2922H71.4069C71.4065 18.2951 71.4061 18.298 71.4058 18.3009ZM59.3248 58.7221C57.6088 58.6731 55.9111 58.5031 54.248 58.2104C54.2712 58.1432 54.2892 58.0737 54.2984 58.0021L59.4064 18.2961C59.4066 18.2948 59.4067 18.2935 59.4069 18.2922H64.4069L59.3248 58.7221ZM52.3221 57.8121C50.7248 57.4332 49.1669 56.9375 47.6628 56.3256L52.4069 18.2922H57.4069L52.3221 57.8121ZM78.4069 18.2922L73.6628 56.3256C72.0691 56.9142 70.4524 57.3955 68.8256 57.7685L73.4069 18.2922H78.4069ZM50.4069 18.2922L45.7683 55.4796C44.136 54.6818 42.5804 53.7371 41.1218 52.6461L45.4069 18.2922H50.4069ZM85.4069 18.2922L81.1218 52.6461C79.391 53.7371 77.5997 54.6818 75.7683 55.4796L80.4069 18.2922H85.4069ZM43.4069 18.2922L39.3064 51.1664C37.6838 49.7272 36.2104 48.0834 34.9216 46.2339L38.4069 18.2922H43.4069ZM92.4069 18.2922L88.9216 46.2339C87.1714 48.0834 85.2879 49.7272 83.3064 51.1664L87.4069 18.2922H92.4069ZM36.4069 18.2922L33.2576 43.5399C32.1616 41.5281 31.2593 39.317 30.5881 36.9058L25.4069 18.2922H36.4069ZM95.5822 36.9058C94.3095 39.317 92.8555 41.5281 91.2576 43.5399L94.4069 18.2922H105.407L95.5822 36.9058Z" />
	<path fill="white"
		d="M121.647 88.64C117.647 88.64 114.474 87.52 112.127 85.28C109.834 82.9867 108.687 79.8933 108.687 76C108.687 75.4667 108.74 74.6667 108.847 73.6L112.207 46.32C112.74 41.7333 114.5 38.1067 117.487 35.44C120.527 32.72 124.26 31.36 128.687 31.36C132.687 31.36 135.86 32.48 138.207 34.72C140.554 36.96 141.727 40.0267 141.727 43.92C141.727 44.4533 141.674 45.2533 141.567 46.32L141.407 47.28C141.407 47.5467 141.3 47.7867 141.087 48C140.874 48.2133 140.634 48.32 140.367 48.32L133.167 48.64C132.527 48.64 132.234 48.32 132.287 47.68L132.527 45.68C132.58 45.4133 132.607 45.04 132.607 44.56C132.607 42.96 132.154 41.7067 131.247 40.8C130.394 39.84 129.194 39.36 127.647 39.36C125.994 39.36 124.58 39.9467 123.407 41.12C122.287 42.2933 121.594 43.8133 121.327 45.68L117.807 74.32C117.754 74.5867 117.727 74.96 117.727 75.44C117.727 77.04 118.154 78.32 119.007 79.28C119.914 80.1867 121.114 80.64 122.607 80.64C124.314 80.64 125.754 80.0533 126.927 78.88C128.1 77.7067 128.82 76.1867 129.087 74.32L129.327 72.32C129.327 72.0533 129.434 71.84 129.647 71.68C129.86 71.4667 130.1 71.36 130.367 71.36L137.487 71.68C138.074 71.68 138.367 72 138.367 72.64L138.207 73.6C137.674 78.1333 135.887 81.7867 132.847 84.56C129.807 87.28 126.074 88.64 121.647 88.64ZM157.434 88.64C153.38 88.64 150.18 87.4933 147.834 85.2C145.487 82.9067 144.314 79.7867 144.314 75.84C144.314 75.4133 144.367 74.6133 144.474 73.44L147.754 46.56C148.287 41.9733 150.074 38.2933 153.114 35.52C156.207 32.7467 159.994 31.36 164.474 31.36C168.527 31.36 171.727 32.5067 174.074 34.8C176.42 37.04 177.594 40.1067 177.594 44C177.594 44.5333 177.54 45.3867 177.434 46.56L174.154 73.44C173.62 78.0267 171.807 81.7067 168.714 84.48C165.674 87.2533 161.914 88.64 157.434 88.64ZM158.394 80.64C160.154 80.64 161.647 80.0267 162.874 78.8C164.1 77.52 164.847 75.8667 165.114 73.84L168.554 46.16C168.607 45.8933 168.634 45.52 168.634 45.04C168.634 43.28 168.154 41.8933 167.194 40.88C166.287 39.8667 165.034 39.36 163.434 39.36C161.674 39.36 160.18 40 158.954 41.28C157.78 42.5067 157.06 44.1333 156.794 46.16L153.434 73.84C153.38 74.16 153.354 74.6133 153.354 75.2C153.354 76.8533 153.78 78.1867 154.634 79.2C155.54 80.16 156.794 80.64 158.394 80.64ZM208.644 32.96C208.697 32.6933 208.804 32.48 208.964 32.32C209.177 32.1067 209.417 32 209.684 32H216.724C216.99 32 217.204 32.1067 217.364 32.32C217.524 32.48 217.577 32.6933 217.524 32.96L210.884 87.04C210.884 87.3067 210.777 87.5467 210.564 87.76C210.35 87.92 210.11 88 209.844 88H201.764C201.23 88 200.91 87.7333 200.804 87.2L193.444 53.28C193.39 53.12 193.284 53.0667 193.124 53.12C193.017 53.12 192.964 53.2 192.964 53.36L188.884 87.04C188.83 87.3067 188.697 87.5467 188.484 87.76C188.324 87.92 188.11 88 187.844 88H180.804C180.217 88 179.924 87.68 179.924 87.04L186.564 32.96C186.617 32.6933 186.75 32.48 186.964 32.32C187.177 32.1067 187.417 32 187.684 32H195.604C196.137 32 196.457 32.2667 196.564 32.8L204.084 66.48C204.084 66.64 204.137 66.72 204.244 66.72C204.404 66.6667 204.51 66.56 204.564 66.4L208.644 32.96ZM253.939 32C254.205 32 254.419 32.1067 254.579 32.32C254.739 32.48 254.792 32.6933 254.739 32.96L254.019 39.04C253.965 39.3067 253.832 39.5467 253.619 39.76C253.459 39.92 253.245 40 252.979 40H243.139C242.925 40 242.765 40.1333 242.659 40.4L236.979 87.04C236.925 87.3067 236.792 87.5467 236.579 87.76C236.419 87.92 236.205 88 235.939 88H228.739C228.472 88 228.259 87.92 228.099 87.76C227.939 87.5467 227.885 87.3067 227.939 87.04L233.699 40.4C233.699 40.1333 233.565 40 233.299 40H224.019C223.752 40 223.539 39.92 223.379 39.76C223.219 39.5467 223.165 39.3067 223.219 39.04L223.939 32.96C223.992 32.6933 224.099 32.48 224.259 32.32C224.472 32.1067 224.712 32 224.979 32H253.939ZM272.547 88C271.96 88 271.667 87.7067 271.667 87.12L271.267 78.72C271.267 78.4533 271.107 78.32 270.787 78.32H259.507C259.24 78.32 259.054 78.4533 258.947 78.72L256.467 87.12C256.307 87.7067 255.934 88 255.347 88H248.307C247.614 88 247.374 87.6533 247.587 86.96L265.667 32.88C265.827 32.2933 266.2 32 266.787 32H275.027C275.614 32 275.907 32.2933 275.907 32.88L280.787 86.96V87.12C280.787 87.7067 280.467 88 279.827 88H272.547ZM261.347 70.64C261.294 70.9067 261.427 71.04 261.747 71.04H270.307C270.627 71.04 270.787 70.9067 270.787 70.64L269.347 45.36C269.347 45.2 269.294 45.12 269.187 45.12C269.08 45.12 268.974 45.2 268.867 45.36L261.347 70.64ZM286.976 88C286.389 88 286.096 87.68 286.096 87.04L292.736 32.96C292.789 32.6933 292.922 32.48 293.136 32.32C293.349 32.1067 293.589 32 293.856 32H300.976C301.242 32 301.456 32.1067 301.616 32.32C301.776 32.48 301.829 32.6933 301.776 32.96L295.136 87.04C295.082 87.3067 294.949 87.5467 294.736 87.76C294.576 87.92 294.362 88 294.096 88H286.976ZM332.238 32.96C332.291 32.6933 332.398 32.48 332.558 32.32C332.771 32.1067 333.011 32 333.278 32H340.318C340.584 32 340.798 32.1067 340.958 32.32C341.118 32.48 341.171 32.6933 341.118 32.96L334.478 87.04C334.478 87.3067 334.371 87.5467 334.158 87.76C333.944 87.92 333.704 88 333.438 88H325.358C324.824 88 324.504 87.7333 324.398 87.2L317.038 53.28C316.984 53.12 316.878 53.0667 316.718 53.12C316.611 53.12 316.558 53.2 316.558 53.36L312.478 87.04C312.424 87.3067 312.291 87.5467 312.078 87.76C311.918 87.92 311.704 88 311.438 88H304.398C303.811 88 303.518 87.68 303.518 87.04L310.158 32.96C310.211 32.6933 310.344 32.48 310.558 32.32C310.771 32.1067 311.011 32 311.278 32H319.198C319.731 32 320.051 32.2667 320.158 32.8L327.678 66.48C327.678 66.64 327.731 66.72 327.838 66.72C327.998 66.6667 328.104 66.56 328.158 66.4L332.238 32.96ZM375.933 39.04C375.879 39.3067 375.746 39.5467 375.533 39.76C375.373 39.92 375.159 40 374.893 40H358.093C357.826 40 357.693 40.1333 357.693 40.4L355.773 55.52C355.773 55.7867 355.906 55.92 356.173 55.92H366.093C366.359 55.92 366.573 56.0267 366.733 56.24C366.893 56.4 366.946 56.6133 366.893 56.88L366.093 63.04C366.093 63.3067 365.986 63.5467 365.773 63.76C365.559 63.92 365.319 64 365.053 64H355.133C354.866 64 354.733 64.1333 354.733 64.4L352.813 79.6C352.813 79.8667 352.946 80 353.213 80H369.933C370.199 80 370.413 80.1067 370.573 80.32C370.733 80.48 370.786 80.6933 370.733 80.96L370.013 87.04C369.959 87.3067 369.826 87.5467 369.613 87.76C369.453 87.92 369.239 88 368.973 88H343.773C343.186 88 342.893 87.68 342.893 87.04L349.533 32.96C349.586 32.6933 349.719 32.48 349.933 32.32C350.146 32.1067 350.386 32 350.653 32H375.853C376.119 32 376.333 32.1067 376.493 32.32C376.653 32.48 376.706 32.6933 376.653 32.96L375.933 39.04ZM398.083 88C397.549 88 397.229 87.7333 397.123 87.2L393.363 64.24C393.363 64.1867 393.336 64.1333 393.283 64.08C393.229 63.9733 393.149 63.92 393.043 63.92H388.883C388.616 63.92 388.483 64.0533 388.483 64.32L385.683 87.04C385.629 87.3067 385.496 87.5467 385.283 87.76C385.123 87.92 384.909 88 384.643 88H377.523C376.936 88 376.643 87.68 376.643 87.04L383.283 32.96C383.336 32.6933 383.469 32.48 383.683 32.32C383.896 32.1067 384.136 32 384.403 32H398.963C402.696 32 405.629 33.2533 407.763 35.76C409.949 38.2133 411.043 41.4933 411.043 45.6C411.043 46.1333 410.989 47.04 410.883 48.32C410.456 51.6267 409.469 54.48 407.923 56.88C406.376 59.28 404.429 61.0933 402.083 62.32C401.869 62.3733 401.763 62.5333 401.763 62.8L406.403 86.88V87.2C406.403 87.7333 406.109 88 405.523 88H398.083ZM391.843 40C391.576 40 391.443 40.1333 391.443 40.4L389.443 56.32C389.443 56.5867 389.549 56.72 389.763 56.72H394.563C396.643 56.72 398.376 55.8133 399.763 54C401.203 52.1333 401.923 49.68 401.923 46.64C401.923 44.56 401.443 42.9333 400.483 41.76C399.523 40.5867 398.216 40 396.563 40H391.843ZM413.382 88C412.795 88 412.502 87.68 412.502 87.04L419.142 32.96C419.195 32.6933 419.329 32.48 419.542 32.32C419.755 32.1067 419.995 32 420.262 32H427.382C427.649 32 427.862 32.1067 428.022 32.32C428.182 32.48 428.235 32.6933 428.182 32.96L421.542 87.04C421.489 87.3067 421.355 87.5467 421.142 87.76C420.982 87.92 420.769 88 420.502 88H413.382ZM442.564 88.64C438.67 88.64 435.577 87.52 433.284 85.28C430.99 83.04 429.844 80.08 429.844 76.4C429.844 75.8667 429.897 75.12 430.004 74.16L430.244 72.08C430.297 71.8133 430.404 71.6 430.564 71.44C430.777 71.2267 431.017 71.12 431.284 71.12H438.324C438.91 71.12 439.204 71.44 439.204 72.08L438.964 73.68C438.91 73.9467 438.884 74.3733 438.884 74.96C438.884 76.72 439.31 78.1067 440.164 79.12C441.017 80.1333 442.137 80.64 443.524 80.64C445.284 80.64 446.777 79.92 448.004 78.48C449.284 77.04 449.924 75.2 449.924 72.96C449.924 71.36 449.417 69.9733 448.404 68.8C447.444 67.6267 445.604 65.92 442.884 63.68C440.75 61.92 439.017 60.3733 437.684 59.04C436.404 57.7067 435.31 56.1333 434.404 54.32C433.55 52.5067 433.124 50.4267 433.124 48.08C433.124 47.6533 433.177 46.9067 433.284 45.84C433.817 41.4133 435.55 37.8933 438.484 35.28C441.417 32.6667 444.99 31.36 449.204 31.36C453.097 31.36 456.164 32.5067 458.404 34.8C460.697 37.04 461.844 40.08 461.844 43.92C461.844 44.4 461.79 45.2267 461.684 46.4L461.524 48.32C461.47 48.5867 461.337 48.8267 461.124 49.04C460.91 49.2 460.67 49.28 460.404 49.28H453.444C453.177 49.28 452.964 49.2 452.804 49.04C452.644 48.8267 452.59 48.5867 452.644 48.32L452.884 46.24C452.937 45.92 452.964 45.4667 452.964 44.88C452.964 43.1733 452.537 41.84 451.684 40.88C450.83 39.8667 449.684 39.36 448.244 39.36C446.537 39.36 445.07 40.0533 443.844 41.44C442.67 42.7733 442.084 44.6133 442.084 46.96C442.084 48.5067 442.564 49.92 443.524 51.2C444.484 52.4267 446.217 54.1067 448.724 56.24C451.284 58.3733 453.257 60.1333 454.644 61.52C456.03 62.9067 457.097 64.4 457.844 66C458.59 67.5467 458.964 69.3067 458.964 71.28C458.964 71.76 458.91 72.5333 458.804 73.6C458.217 78.1867 456.43 81.84 453.444 84.56C450.457 87.28 446.83 88.64 442.564 88.64ZM496.323 39.04C496.27 39.3067 496.136 39.5467 495.923 39.76C495.763 39.92 495.55 40 495.283 40H478.483C478.216 40 478.083 40.1333 478.083 40.4L476.163 55.52C476.163 55.7867 476.296 55.92 476.563 55.92H486.483C486.75 55.92 486.963 56.0267 487.123 56.24C487.283 56.4 487.336 56.6133 487.283 56.88L486.483 63.04C486.483 63.3067 486.376 63.5467 486.163 63.76C485.95 63.92 485.71 64 485.443 64H475.523C475.256 64 475.123 64.1333 475.123 64.4L473.203 79.6C473.203 79.8667 473.336 80 473.603 80H490.323C490.59 80 490.803 80.1067 490.963 80.32C491.123 80.48 491.176 80.6933 491.123 80.96L490.403 87.04C490.35 87.3067 490.216 87.5467 490.003 87.76C489.843 87.92 489.63 88 489.363 88H464.163C463.576 88 463.283 87.68 463.283 87.04L469.923 32.96C469.976 32.6933 470.11 32.48 470.323 32.32C470.536 32.1067 470.776 32 471.043 32H496.243C496.51 32 496.723 32.1067 496.883 32.32C497.043 32.48 497.096 32.6933 497.043 32.96L496.323 39.04ZM497.913 88C497.326 88 497.033 87.68 497.033 87.04L503.673 32.96C503.726 32.6933 503.86 32.48 504.073 32.32C504.286 32.1067 504.526 32 504.793 32H517.993C521.993 32 525.14 33.1467 527.433 35.44C529.78 37.68 530.953 40.7467 530.953 44.64C530.953 45.2267 530.9 46.1067 530.793 47.28L527.673 72.72C527.086 77.36 525.3 81.0667 522.313 83.84C519.326 86.6133 515.593 88 511.113 88H497.913ZM506.953 79.6C506.953 79.8667 507.086 80 507.353 80L511.993 79.92C513.7 79.92 515.166 79.2267 516.393 77.84C517.62 76.4 518.42 74.5067 518.793 72.16L521.753 47.84C521.806 47.4667 521.833 46.9333 521.833 46.24C521.833 44.2667 521.38 42.7467 520.473 41.68C519.62 40.56 518.393 40 516.793 40H512.233C511.966 40 511.833 40.1333 511.833 40.4L506.953 79.6Z" />
</svg>
