<svg width="96" height="74" viewBox="0 0 96 74" fill="none" xmlns="http://www.w3.org/2000/svg">
	<g clip-path="url(#clip0_140_81)">
		<path fill-rule="evenodd" clip-rule="evenodd" fill="#1769AF"
			d="M72.5673 65.7284C72.8151 66.2792 73.0469 66.4716 73.6225 66.5765C74.0382 66.6552 74.8855 66.559 75.0933 66.4191C75.1893 66.3579 75.2212 65.6759 75.2212 63.7175V61.1033H74.4778V62.8082H73.9742C73.2708 62.8082 72.7991 63.1055 72.5513 63.7C72.2875 64.347 72.2955 65.0989 72.5673 65.7284ZM74.222 63.3852C74.4698 63.4552 74.4778 63.4814 74.4778 64.7229V65.9994H74.0462C73.3827 65.9994 73.0949 65.6147 73.0949 64.7492C73.0949 63.7525 73.5505 63.2016 74.222 63.3852Z" />
		<path fill="#1769AF"
			d="M87.1319 61.3393C86.8921 61.4355 86.8122 61.8639 87.052 62.0301C87.2918 62.2224 87.4517 62.2224 87.6116 62.0475C87.9313 61.7153 87.5316 61.1645 87.1319 61.3393Z" />
		<path fill="#1769AF"
			d="M29.9686 61.6803C29.6888 61.6803 29.6568 61.724 29.6568 62.03C29.6568 62.3448 29.6888 62.3798 29.9606 62.3798C30.1684 62.3798 30.2883 62.3098 30.3203 62.1787C30.4002 61.8377 30.2883 61.6803 29.9686 61.6803Z" />
		<path fill="#1769AF"
			d="M9.19282 62.2049C9.09689 61.9251 9.24078 61.6803 9.51257 61.6803C9.79235 61.6803 9.93624 61.9251 9.83232 62.2049C9.80034 62.3011 9.65646 62.3798 9.51257 62.3798C9.37667 62.3798 9.23279 62.3011 9.19282 62.2049Z" />
		<path fill="#1769AF"
			d="M91.6884 63.0268V66.629H92.3279V63.5076L92.6476 63.4377C93.0473 63.3503 93.5269 63.5076 93.6069 63.7787C93.6868 63.8836 93.6868 64.5656 93.6868 65.3V66.629H94.3263V65.1076C94.3263 64.4847 94.2849 63.9161 94.2617 63.5974L94.2616 63.5956C94.2526 63.4724 94.2464 63.3869 94.2464 63.3503C94.0066 62.8519 92.9674 62.6421 92.0881 62.9044L91.6884 63.0268Z" />
		<path fill="#1769AF" d="M86.972 62.8781H87.6116V66.6027H86.972V62.8781Z" />
		<path fill="#1769AF"
			d="M85.1335 64.7404C85.1335 65.8508 85.2134 66.0519 85.3733 66.3142C85.5332 66.5678 85.693 66.6202 86.0927 66.6202C86.4924 66.6202 86.5724 66.6027 86.5724 66.288C86.5724 66.0082 86.4924 65.9557 86.2526 65.9557C86.0927 65.9557 85.9329 65.877 85.9329 65.7896C85.8529 65.7022 85.773 65.1514 85.773 64.5568V63.4727H86.1727C86.4924 63.4727 86.5724 63.4377 86.5724 63.1929C86.5724 62.9568 86.4924 62.9044 86.1727 62.8694C85.8529 62.8344 85.8529 62.8082 85.8529 62.3361C85.773 61.8377 85.693 61.759 85.2934 61.9164C85.2134 61.9601 85.1335 62.135 85.1335 62.441C85.1335 62.8169 85.1335 62.8956 84.9736 62.8956C84.8137 62.8956 84.7338 62.9743 84.7338 63.1842C84.7338 63.394 84.8137 63.4727 84.9736 63.4727C85.1335 63.4727 85.1335 63.5514 85.1335 64.7404Z" />
		<path fill="#1769AF"
			d="M79.6178 66.4016C79.1462 66.0869 78.8904 65.3087 78.9703 64.4607C79.0742 63.324 79.6578 62.7295 80.5371 62.8082C81.1766 62.8694 81.3365 63.0093 81.1766 63.3415C81.0966 63.5426 81.0167 63.5688 80.7769 63.4727C80.2173 63.2279 79.6897 63.8137 79.6897 64.7404C79.6817 65.6497 80.0575 66.0781 80.697 65.9907C81.0966 65.9382 81.1766 65.9645 81.2565 66.1743C81.3365 66.5066 81.0966 66.6202 80.4571 66.6202C80.1374 66.6202 79.8256 66.5415 79.6178 66.4016Z" />
		<path fill="#1769AF"
			d="M69.6256 61.6191V66.629H72.0717V65.9295H70.369V64.4169H71.8639V63.7175H70.369V62.2049H71.2244C72.0637 62.2049 72.0717 62.1962 72.0717 61.9076V61.6191H69.6256Z" />
		<path fill="#1769AF"
			d="M33.254 61.4792H33.8935V63.2104L34.2373 63.1055C34.6609 62.9656 35.2844 63.1404 35.5562 63.4727C35.7241 63.6738 35.7641 63.9361 35.796 65.1601L35.836 66.6027H35.0686V63.8049L34.7808 63.6825C34.621 63.6213 34.3572 63.5951 34.1973 63.6388L33.8935 63.7087V66.6027H33.254V61.4792Z" />
		<path fill="#1769AF"
			d="M31.3595 64.8803C31.3595 66.0082 31.3835 66.1918 31.5753 66.4016C31.7112 66.5503 31.9271 66.629 32.2148 66.629C32.5905 66.629 32.6385 66.6027 32.6385 66.3492C32.6385 66.1219 32.5745 66.0607 32.3427 66.0257L32.055 65.9907L31.991 63.6038H32.3187C32.5666 63.6038 32.6385 63.5514 32.6385 63.3678C32.6385 63.1842 32.5666 63.1317 32.3187 63.1317C32.007 63.1317 31.999 63.1142 31.999 62.6071C31.999 62.3186 31.975 62.0825 31.951 62.0825C31.9271 62.0825 31.7832 62.135 31.6313 62.1962C31.4075 62.2923 31.3595 62.3885 31.3595 62.7208C31.3595 63.053 31.3195 63.1317 31.1437 63.1317C31.0078 63.1317 30.9358 63.2104 30.9358 63.3678C30.9358 63.5251 31.0078 63.6038 31.1437 63.6038C31.3435 63.6038 31.3595 63.6825 31.3595 64.8803Z" />
		<path fill="#1769AF" d="M29.6568 63.0792H30.2963V66.5765H29.6568V63.0792Z" />
		<path fill="#1769AF"
			d="M25.0716 65.265L25.0719 65.2662C25.1506 65.5564 25.2193 65.8097 25.2603 65.9645C25.4121 66.5415 25.4441 66.5765 25.7639 66.5765H26.1076L26.7631 63.9535L26.939 64.6268C26.966 64.7302 26.9974 64.8516 27.0308 64.9804C27.116 65.3093 27.2138 65.687 27.2827 65.9382C27.4346 66.5415 27.4665 66.5765 27.7863 66.5765H28.122L28.5377 65.0377C28.6535 64.6098 28.7633 64.2015 28.8482 63.8858L28.8486 63.8842C28.9334 63.5689 28.9934 63.3458 29.0093 63.2891C29.0413 63.1229 28.9854 63.0792 28.7375 63.0792C28.4258 63.0792 28.4098 63.1142 28.194 63.9885C28.0661 64.4869 27.9382 65.0639 27.8982 65.2738C27.8582 65.4836 27.7943 65.6147 27.7543 65.5623C27.7064 65.5186 27.5385 64.9328 27.3786 64.2683L27.0828 63.0705L26.7631 63.1055C26.4433 63.1404 26.4274 63.1754 26.1476 64.3295C25.9877 64.9852 25.8358 65.5798 25.8118 65.6585C25.7879 65.7372 25.628 65.1863 25.4601 64.4432L25.1484 63.0792H24.4769L24.7886 64.2158C24.8781 64.5514 24.9815 64.9326 25.0716 65.265Z" />
		<path fill="#1769AF"
			d="M17.5863 66.3142C17.0267 65.7984 16.8908 64.7142 17.2665 63.8574C17.5543 63.2016 18.2098 62.8956 18.8573 63.1055C19.3049 63.2454 19.3369 63.3066 19.185 63.5688C19.1211 63.6738 18.9932 63.7 18.7613 63.6475C18.2977 63.5339 17.938 63.8137 17.7941 64.3994C17.5543 65.3699 18.0019 66.1306 18.7454 66.0082C19.0012 65.9645 19.1051 66.0082 19.193 66.1831C19.3449 66.4978 19.153 66.6115 18.4656 66.6115C18.0259 66.6115 17.8501 66.5503 17.5863 66.3142Z" />
		<path fill="#1769AF"
			d="M13.9896 63.2129C13.8272 63.375 13.8277 63.7323 13.829 64.6464L13.8292 66.594H14.4687V65.1514C14.4687 63.9448 14.5007 63.7 14.6366 63.6388C14.9643 63.4989 15.324 63.5688 15.5399 63.7962C15.7237 64.006 15.7477 64.1896 15.7477 65.3175V66.594H16.3872V65.265C16.3872 64.5044 16.3392 63.7962 16.2673 63.63C16.0914 63.2104 15.364 62.9306 14.6845 63.0268C14.6357 63.0339 14.5896 63.0402 14.5461 63.0463C14.265 63.0852 14.0938 63.1089 13.9896 63.2129Z" />
		<path fill="#1769AF" d="M9.19282 63.0792H9.83232V66.5765H9.19282V63.0792Z" />
		<path fill="#1769AF" d="M7.674 61.4792V66.6027H8.3135V61.4792H7.674Z" />
		<path fill="#1769AF" d="M6.17917 61.4792H6.81867V66.6027H6.17917V61.4792Z" />
		<path fill-rule="evenodd" clip-rule="evenodd" fill="#1769AF"
			d="M2.6931 64.1022C2.32698 65.2563 2.00004 66.288 1.96646 66.4016H1.97126C1.9217 66.5678 1.97606 66.6027 2.27103 66.6027C2.61476 66.6027 2.64034 66.5765 2.817 65.9645L3.00165 65.3262H4.57642L4.76108 65.9645C4.93774 66.5765 4.96172 66.6027 5.31105 66.6027C5.55726 66.6027 5.66038 66.559 5.6276 66.4628C5.61146 66.4147 5.48191 66 5.2979 65.4109C5.18117 65.0373 5.04248 64.5933 4.89697 64.1284L4.21431 61.9339L3.35898 62.0038L2.6931 64.1022ZM4.07681 63.5951C4.23909 64.1197 4.37258 64.6268 4.37258 64.7055C4.37258 64.8104 4.19512 64.8541 3.78584 64.8541C3.40374 64.8541 3.1999 64.8104 3.1999 64.7142C3.1999 64.6443 3.3302 64.1372 3.49007 63.6038L3.78025 62.6333L4.07681 63.5951Z" />
		<path fill-rule="evenodd" clip-rule="evenodd" fill="#1769AF"
			d="M89.3702 66.5765C88.4909 66.3754 88.0912 65.5798 88.1711 64.4257C88.251 63.2978 88.8906 62.6508 89.8498 62.7645C90.6492 62.8606 91.1288 63.5776 91.1288 64.653C91.1288 66.0519 90.4094 66.8213 89.3702 66.5765ZM90.1696 65.7372C90.6492 65.1776 90.5692 63.8574 90.0097 63.4727C89.3702 63.0443 88.8906 63.6388 88.8906 64.7492C88.8906 65.8421 89.61 66.3841 90.1696 65.7372Z" />
		<path fill-rule="evenodd" clip-rule="evenodd" fill="#1769AF"
			d="M81.8561 66.2792C82.0159 66.4891 82.1758 66.5415 82.7354 66.6639C82.9752 66.7164 83.215 66.6989 83.9344 66.5765L84.3341 66.5066V65.1076C84.3341 63.429 84.1742 63.0967 83.5347 62.8869C83.135 62.747 82.0159 62.8344 81.936 63.0268C81.8561 63.088 81.8561 63.2366 81.936 63.3678C81.936 63.5514 82.0159 63.5688 82.2557 63.4814C82.8952 63.2016 83.6946 63.4639 83.6946 63.9623C83.6946 64.1634 83.6147 64.1984 82.6554 64.3732C82.4156 64.4082 82.0959 64.5743 81.936 64.7317C81.6962 64.9678 81.6162 65.1076 81.6162 65.5361C81.6162 65.8945 81.6962 66.1219 81.8561 66.2792ZM83.6946 65.3962C83.6946 65.8596 83.6147 66.0432 83.5347 66.0956C82.9752 66.3142 82.2557 66.0082 82.2557 65.5448C82.2557 65.0552 82.6554 64.7667 83.2949 64.7667H83.6946V65.3962Z" />
		<path fill="#1769AF"
			d="M76.8999 66.6639C75.9647 66.4716 75.7808 66.0781 75.7808 64.2508V62.9044H76.5242V64.2858C76.5242 65.8858 76.6042 66.0519 77.3636 66.0519H77.8032V62.9044H78.5546V64.653C78.5546 66.3667 78.5466 66.4104 78.3148 66.4978C78.0111 66.6202 77.1797 66.7164 76.8999 66.6639Z" />
		<path fill-rule="evenodd" clip-rule="evenodd" fill="#1769AF"
			d="M21.0236 66.6639C20.1602 66.5503 19.7206 65.9557 19.7206 64.9153C19.7206 63.8486 20.1043 63.2366 20.8797 63.0705C21.6871 62.9044 22.4065 63.5514 22.4065 64.4432V64.8628L21.5991 64.994C21.1595 65.0639 20.7038 65.1251 20.5919 65.1251C20.472 65.1251 20.3841 65.2038 20.3841 65.3087C20.3841 65.8945 21.0476 66.2705 21.727 66.0694C22.1747 65.9295 22.3026 65.982 22.3026 66.2967C22.3026 66.4366 22.2066 66.5415 22.0628 66.5765C21.6071 66.6727 21.2874 66.6989 21.0236 66.6639ZM21.791 64.4694C21.8869 64.3995 21.6791 63.8137 21.5192 63.7C21.1035 63.4115 20.448 63.7612 20.3201 64.3557L20.2482 64.688L20.9756 64.6005C21.3833 64.5568 21.751 64.4956 21.791 64.4694Z" />
		<path fill-rule="evenodd" clip-rule="evenodd" fill="#1769AF"
			d="M10.5997 65.1076C10.3199 65.8596 10.6557 66.4541 11.4311 66.5765C11.8707 66.6377 12.2784 66.6202 12.766 66.5153C12.9978 66.4628 13.0058 66.4104 13.0058 65.1164C13.0058 64.3732 12.9499 63.6563 12.8859 63.5339C12.758 63.2716 12.1825 62.9656 11.8068 62.9656C11.2872 62.9656 10.7676 63.2016 10.7676 63.4377C10.7676 63.6388 10.8235 63.6563 11.3991 63.5863C12.1185 63.5076 12.3663 63.63 12.3663 64.0847C12.3663 64.312 12.3104 64.3645 12.0626 64.3645C11.8947 64.3645 11.535 64.4519 11.2552 64.5568C10.8635 64.6967 10.7116 64.8279 10.5997 65.1076ZM12.3663 64.8016V66.1131H11.9587C10.8395 66.1131 10.8076 65.029 11.9267 64.8628L12.3663 64.8016Z" />
		<path fill="#1769AF"
			d="M65.6287 69.5492C65.277 69.1907 65.1731 68.7623 65.3489 68.3164C65.5248 67.8443 65.8366 67.6169 66.3002 67.6169C66.7958 67.6169 67.1076 67.8705 67.2595 68.3776C67.5792 69.4355 66.3721 70.3098 65.6287 69.5492ZM66.8118 69.3656C67.1156 69.0596 67.1316 68.4038 66.8358 68.0891C66.3482 67.5557 65.5568 67.9579 65.5568 68.7273C65.5568 69.5055 66.3082 69.8814 66.8118 69.3656ZM65.8765 68.7273V68.0891H66.2522C66.6839 68.0891 66.8358 68.3339 66.628 68.7011C66.532 68.8672 66.532 68.9634 66.612 69.0596C66.7558 69.2169 66.7638 69.3656 66.62 69.3656C66.564 69.3656 66.4601 69.2344 66.3881 69.0771C66.3242 68.9197 66.2283 68.7885 66.1803 68.7885C66.1323 68.7885 66.0924 68.9197 66.0924 69.0771C66.0924 69.2344 66.0444 69.3656 65.9805 69.3656C65.9245 69.3656 65.8765 69.0771 65.8765 68.7273ZM66.4681 68.5437C66.564 68.3776 66.2842 68.1765 66.1563 68.3164C66.0524 68.4301 66.1563 68.6661 66.3002 68.6661C66.3562 68.6661 66.4281 68.6137 66.4681 68.5437Z" />
		<path fill="#21B24B"
			d="M56.1961 69.6366C56.2281 69.5229 56.7157 67.2235 57.2833 64.5306C57.8908 61.6279 58.4104 59.3896 58.5623 59.0399C58.906 58.2635 59.5934 57.5186 60.3209 57.1426C60.8964 56.8392 60.9284 56.8366 63.7662 56.799C66.4921 56.7632 66.62 56.771 66.572 56.9739C66.54 57.091 66.0524 59.387 65.4928 62.0799C64.9253 64.7728 64.3497 67.2471 64.2138 67.5793C63.8861 68.3575 63.2226 69.0744 62.4632 69.4679C61.8717 69.7739 61.8397 69.7739 59.0019 69.8088C56.292 69.8438 56.1481 69.8351 56.1961 69.634V69.6366ZM61.0083 66.2093C61.2242 65.9994 61.448 65.7284 61.512 65.5973C61.5759 65.4661 61.7997 64.5219 62.0156 63.4902L62.3993 61.6191L64.6375 61.4967L64.6695 61.119C64.6935 60.8235 64.6295 60.6609 64.3817 60.3907L64.062 60.0427H61.6159C59.3137 60.0427 59.1538 60.0558 59.0978 60.2604C59.0099 60.5717 59.1938 61.0211 59.5215 61.3096C59.7373 61.4932 59.9612 61.5544 60.3848 61.5544C60.8085 61.5544 60.9604 61.5981 60.9604 61.7205C60.9604 61.808 60.7445 62.9096 60.4808 64.1599C60.217 65.4102 60.0011 66.4593 60.0011 66.4943C60.0011 66.538 60.137 66.5643 60.3129 66.5643C60.5207 66.5643 60.7685 66.4331 61.0083 66.2058V66.2093Z" />
		<path fill="#1769AF"
			d="M38.7697 69.8115C38.7697 69.4355 40.96 59.4945 41.1199 59.1448C41.4556 58.3894 42.0072 57.7721 42.7346 57.335L43.4061 56.9354L46.3158 56.8978C48.682 56.8672 49.2096 56.8891 49.1696 57.0141C49.1376 57.0989 48.634 59.4622 48.0505 62.2687C47.371 65.5125 46.8834 67.5758 46.7235 67.9343C46.4117 68.5988 45.7483 69.2895 45.0768 69.6305C44.6132 69.8578 44.3813 69.8753 41.6794 69.9103C40.0807 69.9278 38.7697 69.9015 38.7697 69.8491V69.8115ZM41.6635 66.3317C42.0631 66.0257 42.271 65.5973 42.4788 64.653L42.5667 64.2421L43.8937 64.1809C44.6211 64.1459 45.3246 64.0585 45.4445 63.9798C45.7563 63.7874 46.3398 63.0443 46.3398 62.8432C46.3398 62.6945 46.06 62.6683 44.6371 62.6683C43.6939 62.6683 42.9265 62.6246 42.9265 62.5809C42.9265 62.5372 42.9824 62.2923 43.0384 62.0563L43.1503 61.6191H44.6691C45.5005 61.6191 46.3478 61.5667 46.5556 61.5055C46.9873 61.3743 47.4429 60.9031 47.6108 60.4213L47.7227 60.1013H45.3486C43.2462 60.1013 42.9345 60.1249 42.6147 60.3173C41.9912 60.6819 41.8713 60.9852 41.3197 63.6134C41.0319 64.9861 40.7761 66.2276 40.7442 66.3675C40.6962 66.5949 40.7282 66.6298 40.976 66.6298C41.1359 66.6298 41.4476 66.4987 41.6635 66.3326V66.3317Z" />
		<path fill="#F37022"
			d="M46.9233 72.7842C46.9233 72.7579 47.0353 72.1896 47.1711 71.5251C47.9865 67.6082 48.5381 65.0115 48.626 64.6005C48.69 64.347 49.0976 62.4322 49.5293 60.3426C49.969 58.2617 50.4406 56.3295 50.5685 56.0497C50.8802 55.38 51.7995 54.476 52.431 54.2137C52.8627 54.0397 53.3903 53.9986 55.7484 53.9584C58.4343 53.912 58.5543 53.919 58.4983 54.1245C58.4663 54.2416 58.2905 55.0513 58.1146 55.9081C56.8676 62.0196 55.1089 70.072 54.9331 70.5092C54.6293 71.2523 54.0138 71.9518 53.2704 72.3715L52.6229 72.7387L49.7691 72.7824C48.2023 72.7999 46.9233 72.7911 46.9233 72.7649V72.7842ZM50.2248 66.4716C50.6484 66.2268 50.9122 65.7721 51.136 64.924C51.2879 64.3295 51.3599 64.1896 51.5437 64.1809C51.6716 64.1809 52.3271 64.1809 53.0066 64.1896C54.4854 64.2158 55.013 64.0847 55.3807 63.6038C55.6925 63.2016 55.9643 62.3186 56.0522 61.453C56.1082 60.931 56.0762 60.8182 55.8204 60.4913L55.5326 60.1162H50.6964L50.5205 61.0167C50.4246 61.5151 50.1208 62.9664 49.857 64.2429C49.5933 65.5195 49.3694 66.5774 49.3694 66.6036C49.3694 66.7085 49.953 66.6211 50.2248 66.4725V66.4716ZM51.7356 62.5896C51.6716 62.5634 51.6796 62.3623 51.7436 62.0913L51.8475 61.6279H54.5894L54.5254 62.0038C54.4854 62.2137 54.4295 62.4235 54.3975 62.4585C54.3256 62.5372 51.9114 62.6508 51.7356 62.5896Z" />
		<g clip-path="url(#clip1_140_81)">
			<rect width="48" height="48" transform="translate(48 1)" fill="#ED1C2E" />
			<rect width="48" height="48" transform="translate(0 1)" fill="black" />
			<path fill="white"
				d="M8.05025 17.4395C6.96983 17.4237 6.28722 17.4553 5.2746 17.0733V15.7623C6.19003 16.5082 7.00373 16.5941 8.18361 16.6099C10.1455 16.6777 11.3435 15.7962 11.3435 14.2502C11.3435 13.0703 10.4394 12.4532 9.43129 11.8723L7.17099 10.575C5.95721 9.86073 5.24296 9.04473 5.22714 7.71567C5.21132 5.75373 7.13935 4.58967 9.23465 4.65522C10.2156 4.68912 10.8304 4.65526 11.7278 5.02143V6.30071C11.0497 5.63618 10.3309 5.487 9.36575 5.4531C8.00278 5.36946 6.50647 6.28489 6.62174 7.64559C6.70537 8.54971 7.30435 9.00855 8.08416 9.45835L10.0619 10.6066C11.5582 11.47 12.8059 11.9357 12.8873 14.049C12.9867 16.793 10.2925 17.4915 8.05025 17.4395ZM28.1669 6.025C28.072 6.19904 27.9929 6.30976 27.9318 6.47702L24.0102 17.4101L20.9068 9.09221L17.8667 17.4734L13.7078 6.2736C13.6695 6.11133 13.5937 5.96033 13.4863 5.83282C13.3724 5.67885 13.2277 5.55032 13.0613 5.45537H15.2199C15.1408 5.58195 15.0933 5.68144 15.0775 5.80123C15.0459 5.92781 15.0323 6.02271 15.0775 6.14702L17.9617 14.3383L20.4344 7.75409L19.8513 6.2736C19.7722 6.04757 19.6614 5.97525 19.5348 5.81703C19.4326 5.68963 19.3224 5.56883 19.2048 5.45537H21.3476C21.2897 5.54742 21.247 5.64813 21.221 5.7537C21.1822 5.94254 21.1979 6.13851 21.2662 6.31878L24.1639 14.3655L26.8424 6.40921C26.9373 6.18318 27.0006 6.06341 26.9848 5.85773C26.969 5.68368 26.9396 5.57515 26.8424 5.43275H28.576C28.4242 5.60892 28.2881 5.798 28.1692 5.99782M29.9458 8.86844H28.5082L28.5489 8.9317C28.6254 9.04376 28.6834 9.16743 28.7207 9.29791C28.7697 9.43248 28.7927 9.57516 28.7885 9.71833V16.454C28.7885 16.6167 28.7885 16.7252 28.7252 16.8721V16.8767C28.6936 16.9807 28.6642 17.0416 28.5964 17.1434L28.5557 17.2067H29.9978L29.9616 17.1456L29.9119 17.0665C29.8667 16.9987 29.826 16.94 29.8124 16.8496C29.7808 16.5783 29.7808 16.2076 29.7808 15.7804V9.69571C29.7808 9.57365 29.7808 9.50129 29.8576 9.24362L29.9887 8.92721L30.0181 8.87072L29.9458 8.86844ZM42.6034 5.95264C42.5582 6.17867 42.5582 6.34593 42.5582 6.58552L42.5741 17.5977L33.0808 7.09183V15.8347C33.0726 16.1274 33.1108 16.4196 33.1938 16.7004C33.2255 16.8902 33.2729 16.9987 33.334 17.2044H31.8376C31.9507 17.0462 32.0117 16.9784 32.0637 16.7795C32.127 16.5444 32.127 16.3862 32.127 16.1466V6.3143C32.127 6.12443 32.0953 5.98431 32.0004 5.81027C31.9342 5.65602 31.8179 5.5286 31.6704 5.44861H33.404L41.6428 14.8515V7.38568C41.6428 6.8206 41.6745 6.48158 41.5637 5.88939C41.5321 5.71534 41.5004 5.60453 41.4507 5.43275H42.773C42.7097 5.62261 42.678 5.74921 42.6464 5.95264M13.0546 25.1154C12.6613 25.1154 12.4217 25.1154 12.0306 25.2104V30.2509C12.4003 30.3767 12.7919 30.4251 13.1811 30.3932C14.7249 30.2983 16.2371 29.4326 16.1873 27.7306C16.1421 25.7145 14.6142 25.1629 13.0546 25.1154ZM13.1156 20.1428H11.9854V24.3809H13.0093C14.7272 24.3809 15.5138 23.4767 15.4663 22.1748C15.403 20.9949 14.6006 20.1406 13.1382 20.1406M13.5789 31.1188H10.3987C10.4936 30.9922 10.5253 30.8928 10.5886 30.7888C10.6677 30.5696 10.7016 30.4113 10.7016 30.174V20.4863C10.7039 20.2458 10.6497 20.0082 10.5434 19.7925C10.4754 19.6372 10.3913 19.4894 10.2925 19.3517H13.8457C15.3736 19.3517 16.558 20.6446 16.6349 22.1703C16.6665 23.2891 16.2099 23.8881 15.3601 24.3763L14.9193 24.6476L15.3714 24.8216C16.6823 25.2624 17.4056 26.223 17.4056 27.7668C17.3898 29.8463 15.9093 31.1211 13.5134 31.1211M28.402 19.8761C28.3703 20.0976 28.3862 20.2219 28.3862 20.4412V27.326C28.3862 29.5954 26.4491 31.2477 24.0238 31.2951C21.4244 31.3268 19.3133 29.6564 19.3133 27.2628V20.4819C19.3133 20.2558 19.3291 20.1519 19.2975 19.9462C19.2773 19.7361 19.2302 19.5294 19.1574 19.3314H20.7396C20.6665 19.4855 20.6184 19.6503 20.5972 19.8196C20.552 20.0456 20.5655 20.1654 20.5655 20.3711V27.0978C20.5655 28.9105 22.1884 30.3119 24.0012 30.2486C25.7959 30.2034 27.0571 28.863 27.0571 27.1927V20.4525C27.0571 20.2174 27.0571 20.075 27.0255 19.8535C26.9897 19.6755 26.9367 19.5014 26.8672 19.3336H28.506C28.4427 19.5235 28.411 19.65 28.3794 19.8535M33.6685 20.0275C33.1803 20.0275 32.8774 20.0434 32.4253 20.2491V24.3131C32.7654 24.3489 33.1076 24.3595 33.4492 24.3447C35.0721 24.2181 36.0486 23.3682 35.9536 22.0844C35.8904 21.1396 35.5762 20.1315 33.6933 20.0501M37.6783 31.1392L32.9316 24.9956C32.805 24.8374 32.7576 24.7244 32.6152 24.6182C32.5519 24.5549 32.4886 24.5233 32.3891 24.4758V29.9005C32.3891 30.1537 32.3733 30.2938 32.4344 30.547C32.466 30.7662 32.5293 30.8928 32.6084 31.1121H30.8748C30.9697 30.9222 31.0488 30.8114 31.0646 30.6238C31.1098 30.3888 31.1098 29.8689 31.1098 29.4259V20.9814C31.1176 20.6009 31.0858 20.2206 31.0149 19.8467C30.9697 19.6207 30.8883 19.5303 30.7934 19.3585H34.3375C35.8813 19.3585 37.2669 20.3824 37.2194 22.0709C37.1878 23.7096 35.7547 25.1109 34.0211 24.8442C34.116 24.9233 34.1612 24.9866 34.2584 25.0657C34.5884 25.3822 34.7783 25.5856 35.0766 25.9631L37.8794 29.5231C38.2411 29.9751 38.5259 30.3729 38.8875 30.6894L39.4865 31.1414L37.6783 31.1392ZM25.3551 33.7023C25.3099 33.9284 25.3099 34.0956 25.3099 34.3352L25.3257 45.3474L15.8325 34.837V43.5798C15.8243 43.8726 15.8624 44.1647 15.9455 44.4455C15.9771 44.6354 16.0246 44.7461 16.0879 44.9496H14.6368C14.7498 44.7913 14.8108 44.7236 14.8628 44.5246C14.9261 44.2896 14.9261 44.1314 14.9261 43.8918V34.0595C14.9261 33.8696 14.8944 33.7295 14.7995 33.5554C14.7333 33.4012 14.6171 33.2738 14.4695 33.1938H16.2031L24.4419 42.5966V35.1308C24.4419 34.5658 24.4736 34.2267 24.3628 33.6345C24.3312 33.4605 24.2995 33.3498 24.2498 33.178H25.5744C25.5111 33.3678 25.4794 33.4944 25.4478 33.6978M34.8732 44.9496H28.0629C28.1601 44.8181 28.2293 44.6681 28.2664 44.5089C28.3297 44.2873 28.298 44.1291 28.298 43.9098V34.0481C28.2999 33.8755 28.2676 33.7042 28.2031 33.5441C28.1398 33.4017 28.0901 33.3249 27.9816 33.2141H33.9827V34.3963C33.8425 34.2539 33.7159 34.1747 33.5261 34.1115C33.2548 34.0165 33.0695 34.0662 32.8028 34.0662H29.6045V37.9427H33.9827V39.0615C33.7476 38.9485 33.5894 38.9032 33.3204 38.84C33.1328 38.8083 32.9904 38.8084 32.8005 38.8084H29.6497V44.0704H33.4153C33.9352 44.0704 34.2336 44.0387 34.7263 43.8805C34.9184 43.8293 35.0998 43.7444 35.262 43.6296L34.8732 44.9496ZM7.11675 36.9391C7.12353 36.9391 7.1936 36.9165 7.20716 36.9255C7.28154 36.9688 7.35613 37.0118 7.43093 37.0544C7.51233 37.0583 7.5937 37.0628 7.67504 37.0679L7.82196 37.0838C7.92287 37.1391 8.02094 37.1994 8.1158 37.2646C8.16114 37.3345 8.20119 37.4079 8.2356 37.4838C8.27176 37.5652 8.24916 37.694 8.25368 37.7731C8.24908 37.8188 8.24153 37.8641 8.23108 37.9087C8.22429 37.9359 8.20847 38.0896 8.20847 38.0896C8.21525 38.1687 8.32149 38.2794 8.38025 38.2885C8.46163 38.302 8.62437 38.1891 8.62211 38.1077C8.61985 38.0783 8.60629 38.0851 8.5995 38.0557C8.59046 37.9924 8.41868 37.7709 8.58594 37.4115C8.66957 37.2307 8.87978 37.1289 9.04704 37.1086C9.13067 37.0973 9.23691 37.1176 9.32506 37.0996C9.41321 37.0815 9.4765 37.0317 9.56013 37.0024C9.57796 37.0236 9.59763 37.0433 9.6189 37.0611C9.6302 37.0928 9.60534 37.1651 9.5963 37.1967C9.55561 37.3188 9.65054 37.5991 9.65958 37.6488C9.66319 37.7898 9.63459 37.9297 9.57595 38.0579C9.53753 38.119 9.47424 38.2003 9.38383 38.2387C9.22561 38.3111 8.83231 38.2275 8.77355 38.4964C8.76903 38.5191 8.75094 38.5778 8.76451 38.6027C8.8044 38.6438 8.85009 38.6788 8.90012 38.7066C9.06513 38.6908 9.12615 38.6072 9.27985 38.5258C9.38542 38.4773 9.49726 38.4438 9.61212 38.4264L9.62794 38.449C9.65054 38.4626 9.70253 38.4422 9.72739 38.4467C9.78486 38.4598 9.84147 38.4764 9.89692 38.4964C9.99637 38.5643 10.0823 38.7677 10.1184 38.8626C10.1478 38.9394 10.254 39.1338 10.2179 39.1971C10.1727 39.2808 10.0212 39.3463 9.95116 39.4163C9.90144 39.4616 9.83137 39.552 9.74096 39.5972C9.68336 39.6149 9.62438 39.6277 9.56465 39.6356C9.41547 39.6582 9.12615 39.5271 9.0154 39.3305C8.96567 39.2401 8.98602 39.1316 8.89786 39.0434C8.83458 38.9802 8.67183 38.944 8.55882 39.0434C8.54526 39.057 8.50909 39.1745 8.51361 39.1926C8.51813 39.2107 8.54074 39.2287 8.54074 39.2604C8.54074 39.2649 8.51813 39.3011 8.52265 39.3056C8.56108 39.396 8.71704 39.4367 8.78259 39.5316C8.83458 39.5926 8.85492 39.6672 8.87752 39.717C8.90917 39.7848 8.94533 39.9498 8.94533 39.9566C8.94081 40.0131 8.94759 40.1216 8.92725 40.1713C8.86275 40.3001 8.76015 40.4058 8.63341 40.4742C8.50909 40.542 8.46389 40.6618 8.36217 40.6821C8.26046 40.7025 8.1497 40.5307 8.05929 40.4403C8.03669 40.4177 7.96888 40.3725 7.94628 40.3499C7.81066 40.203 7.80162 40.0515 7.80388 39.9295C7.80388 39.8843 7.79258 39.8323 7.8084 39.7939C7.85079 39.7092 7.90152 39.6289 7.95984 39.5542C8.03443 39.4774 8.13388 39.448 8.17005 39.3734C8.18361 39.3463 8.19717 39.2559 8.18587 39.2265C8.16327 39.1813 8.05929 39.0909 8.05025 39.0841C7.97114 39.0389 7.78354 39.2582 7.77902 39.274C7.72094 39.3779 7.65678 39.4782 7.58689 39.5746C7.5236 39.6288 7.41737 39.6785 7.34956 39.6876C7.27843 39.701 7.2068 39.7115 7.13483 39.7192C7.00214 39.6984 6.87863 39.6386 6.77996 39.5475C6.71215 39.4706 6.54715 39.3576 6.54715 39.3576C6.48612 39.2898 6.46352 39.2762 6.48386 39.2175C6.50421 39.1587 6.5675 39.1135 6.60366 39.0502C6.64887 38.9666 6.67147 38.8242 6.73928 38.7383C6.7551 38.7157 6.789 38.7089 6.80709 38.6931C6.84551 38.6592 6.92688 38.5688 6.97209 38.5439C7.05798 38.4987 7.25237 38.4987 7.33374 38.528C7.37442 38.5461 7.55977 38.6185 7.55977 38.6411C7.55977 38.6637 7.59819 38.7089 7.62305 38.7315C7.64792 38.7541 7.68182 38.7699 7.71347 38.788L7.73607 38.7722C7.80388 38.7835 7.88751 38.7835 7.94402 38.7112C7.9621 38.6886 7.98922 38.6162 7.97566 38.5891C7.8757 38.5097 7.76992 38.4379 7.65922 38.3744C7.63662 38.3698 7.58463 38.3857 7.55977 38.3766C7.50778 38.3608 7.48744 38.3246 7.43545 38.2952C7.41285 38.2817 7.34956 38.2727 7.32244 38.2546C7.171 38.1506 7.0286 37.9291 7.0286 37.7573C7.02634 37.6285 7.09641 37.4951 7.12805 37.3731C7.15969 37.251 7.08284 37.1922 7.07832 37.0882C7.07606 37.0589 7.10545 37.025 7.11449 36.9979M41.6971 36.9843C41.6903 36.9843 41.6202 36.9617 41.6066 36.9707L41.3806 37.0996C41.2992 37.1036 41.2179 37.1081 41.1365 37.1131C41.0874 37.1169 41.0384 37.1221 40.9896 37.1289C40.8891 37.1849 40.791 37.2453 40.6957 37.3098C40.6502 37.3797 40.6101 37.4529 40.576 37.529C40.5398 37.6104 40.5647 37.7392 40.5579 37.8183C40.5625 37.864 40.57 37.9093 40.5805 37.9539C40.5931 38.0142 40.6006 38.0755 40.6031 38.1371C40.5986 38.2139 40.4901 38.3269 40.4313 38.3359C40.3499 38.3472 40.1872 38.2365 40.1894 38.1506C40.1917 38.1212 40.2053 38.128 40.212 38.0986C40.2211 38.0354 40.3929 37.8138 40.2256 37.4544C40.142 37.2736 39.9318 37.1719 39.7645 37.1516C39.6809 37.1403 39.5769 37.1606 39.4865 37.1425C39.3961 37.1244 39.3351 37.0747 39.2514 37.0453C39.2514 37.0453 39.1994 37.0905 39.1927 37.1041C39.1791 37.1358 39.2062 37.2081 39.2153 37.2397C39.2537 37.3618 39.161 37.6465 39.152 37.6917C39.147 37.8321 39.1757 37.9716 39.2356 38.0986C39.2807 38.1756 39.3465 38.2382 39.4255 38.2794C39.5837 38.3518 39.977 38.2682 40.0357 38.5371C40.0403 38.5597 40.0583 38.6185 40.0448 38.6434C40.0312 38.6682 39.9205 38.7473 39.9046 38.7473C39.7419 38.7292 39.6786 38.6479 39.5272 38.5665C39.4639 38.5326 39.2605 38.4693 39.1927 38.4693L39.1768 38.4919C39.1542 38.5055 39.1022 38.4851 39.0774 38.4896C39.0199 38.5028 38.9633 38.5194 38.9079 38.5393C38.8084 38.6072 38.7225 38.8106 38.6863 38.9056C38.657 38.9824 38.5507 39.1722 38.5892 39.24C38.6344 39.3237 38.7858 39.3893 38.8559 39.4593C38.9056 39.5045 38.9757 39.5949 39.0661 39.6401C39.0977 39.6559 39.2085 39.674 39.2401 39.6785C39.3893 39.7011 39.6786 39.5701 39.7894 39.3734C39.8391 39.2876 39.8188 39.1745 39.9069 39.0864C39.9702 39.0231 40.1329 38.9869 40.2459 39.0864C40.2688 39.1334 40.284 39.1838 40.2912 39.2356C40.2866 39.2536 40.264 39.2717 40.264 39.3034C40.264 39.3079 40.2866 39.344 40.2821 39.3485C40.2437 39.439 40.0877 39.4797 40.0222 39.5746C39.9702 39.6356 39.9499 39.7102 39.9272 39.7599C39.8978 39.8369 39.8751 39.9164 39.8594 39.9973C39.864 40.0538 39.8572 40.1623 39.8775 40.212C39.942 40.3408 40.0446 40.4465 40.1714 40.5149C40.2957 40.5827 40.3409 40.7025 40.4426 40.7228C40.5443 40.7432 40.6551 40.5714 40.7455 40.481C40.7681 40.4584 40.8359 40.4131 40.8585 40.3905C40.9094 40.3337 40.9482 40.2672 40.9727 40.1949C40.9972 40.1227 41.0068 40.0462 41.0009 39.9701C41.0009 39.9249 41.0122 39.8729 40.9964 39.8345C40.954 39.7498 40.9033 39.6696 40.8449 39.5949C40.7703 39.5181 40.6709 39.4887 40.6347 39.4141C40.6212 39.387 40.6076 39.2965 40.6189 39.2694C40.637 39.2242 40.7455 39.1338 40.7545 39.1271C40.8336 39.0818 41.0212 39.3011 41.0258 39.317C41.0833 39.4219 41.1475 39.523 41.2179 39.6198C41.2812 39.674 41.3874 39.7238 41.4552 39.7328L41.6677 39.7645C41.8004 39.7436 41.9239 39.6838 42.0225 39.5927C42.0904 39.5158 42.2554 39.4028 42.2554 39.4028C42.3164 39.335 42.339 39.3214 42.3232 39.2627C42.3073 39.2039 42.2395 39.1587 42.2034 39.0977C42.1582 39.014 42.1356 38.8716 42.0678 38.7857C42.0519 38.7631 42.0225 38.7564 41.9999 38.7406C41.9615 38.7067 41.8801 38.6162 41.8349 38.5914C41.7201 38.5471 41.5939 38.5415 41.4756 38.5756C41.3976 38.6078 41.3214 38.6439 41.2473 38.684C41.2201 38.7066 41.2088 38.7518 41.184 38.7744C41.1591 38.797 41.1252 38.8128 41.0936 38.8309L41.071 38.8151C41.0031 38.8264 40.9195 38.8264 40.863 38.7541C40.8449 38.7315 40.8178 38.6592 40.8314 38.6321C40.9321 38.5526 41.0386 38.4808 41.1501 38.4173C41.1727 38.4105 41.2247 38.4264 41.2495 38.4196C41.3015 38.4038 41.3219 38.3676 41.3738 38.3382C41.3964 38.3246 41.4597 38.3156 41.4869 38.2975C41.6383 38.1935 41.7807 37.972 41.7807 37.8002C41.783 37.6714 41.7129 37.5381 41.6835 37.416C41.6541 37.294 41.7287 37.2352 41.7287 37.1312C41.731 37.1018 41.7061 37.0679 41.6925 37.0408" />
			<path fill="white"
				d="M57.4641 18.2025L56.7192 17.7776L56.7167 17.7851C56.2592 17.5151 56.0643 17.2277 56.0593 16.8152C56.0568 16.5552 56.1568 16.3228 56.3417 16.1403C56.5917 15.8953 56.9917 15.7553 57.4166 15.7703H57.5316L57.5345 15.7704C57.798 15.7779 57.9875 15.7832 58.2515 15.8903L58.2765 15.9003V16.4252L58.2165 16.3677C57.994 16.1552 57.7716 16.1078 57.4616 16.0978C57.2066 16.1053 56.9242 16.1803 56.7567 16.3553C56.6367 16.4753 56.5817 16.6227 56.5942 16.7802C56.6217 17.0477 56.7917 17.1977 57.0591 17.3477L57.7091 17.7226L57.8591 17.8051C58.2915 18.0451 58.634 18.2375 58.659 18.8799C58.6665 19.1849 58.579 19.4349 58.3915 19.6249C58.0465 19.9748 57.4616 20.0348 57.1016 20.0348H56.9267L56.9026 20.0342C56.6148 20.0271 56.3985 20.0218 56.1018 19.9099L56.0768 19.8999V19.3699L56.1343 19.4199C56.4317 19.6649 56.6942 19.6849 57.0691 19.6899C57.4241 19.7024 57.6991 19.6199 57.8741 19.4524C58.009 19.3274 58.074 19.16 58.074 18.9525C58.074 18.5775 57.7891 18.385 57.4641 18.2025Z" />
			<path fill="white"
				d="M58.9364 16.1527C58.9164 16.0927 58.9039 16.0577 58.8614 16.0078L58.8415 16.0152C58.7965 15.9552 58.7665 15.9278 58.704 15.8903L58.589 15.8253H59.5339L59.5014 15.8803C59.4739 15.9228 59.4689 15.9378 59.4564 15.9853C59.4439 16.0327 59.4414 16.0577 59.4539 16.0902L60.4213 18.8399L61.2412 16.6577L61.0412 16.1577C61.0249 16.1169 61.0052 16.0928 60.9659 16.0445L60.9362 16.0078C60.8987 15.9578 60.8662 15.9252 60.8237 15.8827L60.7612 15.8228H61.6686L61.6386 15.8727L61.6356 15.8784C61.6176 15.9121 61.6081 15.9299 61.5986 15.9678C61.5836 16.0303 61.5886 16.0677 61.6136 16.1427L62.6135 18.8424L63.5134 16.1752C63.5509 16.1002 63.5659 16.0553 63.5634 16.0003C63.5609 15.9453 63.5459 15.9103 63.5209 15.8703L63.4859 15.8153H64.2284L64.1784 15.8727C64.1173 15.9411 64.0873 15.9905 64.0207 16.0999L64.0159 16.1078L64.0121 16.1144C63.9914 16.1512 63.975 16.1803 63.9609 16.2227L62.566 20.1098L61.4912 17.2226L60.4363 20.1323L58.9364 16.1527Z" />
			<path fill="white"
				d="M64.7283 16.2577C64.7317 16.1889 64.7215 16.1201 64.6983 16.0552L64.6883 16.0802C64.6701 16.018 64.6422 15.9589 64.6058 15.9052L64.5683 15.8503H65.3682L65.3432 15.9003L65.2807 16.0502C65.2457 16.1752 65.2457 16.2102 65.2457 16.2677V19.2674C65.2457 19.4523 65.2457 19.6323 65.2607 19.7673C65.2707 19.8073 65.2857 19.8323 65.3357 19.9073L65.3682 19.9623H64.6008L64.6383 19.9073C64.6683 19.8623 64.6833 19.8324 64.6983 19.7824C64.7283 19.7124 64.7283 19.6623 64.7283 19.5823V16.2577Z" />
			<path fill="white"
				d="M66.1581 16.1802C66.1581 16.1177 66.1481 16.0728 66.1181 16.0228L66.1156 15.9978C66.0906 15.9453 66.0656 15.9152 66.0157 15.8852L65.9032 15.8202H66.6531L69.4628 19.0274V16.4202C69.4678 16.2802 69.4678 16.1677 69.4378 16.0127L69.4053 15.8778L69.3878 15.8103H69.9427L69.9277 15.8603C69.9052 15.9253 69.8952 15.9652 69.8852 16.0352C69.8702 16.1227 69.8702 16.1678 69.8702 16.2477L69.8752 20.1648L66.5706 16.5152V19.4848C66.5706 19.6023 66.5706 19.6024 66.6081 19.7773C66.6156 19.8273 66.6256 19.8598 66.6406 19.9023L66.6706 19.9973H66.0357L66.0731 19.9423C66.1131 19.8873 66.1281 19.8573 66.1381 19.8073C66.1581 19.7273 66.1581 19.6748 66.1581 19.5949V16.1802Z" />
			<path fill-rule="evenodd" clip-rule="evenodd" fill="white"
				d="M70.6401 16.2527C70.6404 16.1746 70.6225 16.0976 70.5876 16.0277L70.5951 16.0328C70.5702 15.9728 70.5501 15.9377 70.5102 15.8827L70.4727 15.8278H71.7725C72.3025 15.8278 72.7424 16.2727 72.7724 16.8402C72.7824 17.2151 72.6499 17.4451 72.3125 17.64L72.2225 17.695L72.3175 17.7301C72.8024 17.8925 73.0474 18.2475 73.0474 18.7849C73.0399 19.5248 72.5099 19.9848 71.66 19.9848H70.5002L70.5427 19.9273C70.5636 19.8985 70.5812 19.8675 70.5951 19.8348L70.6051 19.8173C70.6301 19.7423 70.6401 19.6923 70.6401 19.6174V16.2527ZM71.5025 16.1652H71.1401L71.1076 17.5975H71.4276C71.715 17.5975 71.9375 17.4926 72.0775 17.3476C72.2025 17.2226 72.26 17.0477 72.2525 16.8402C72.2525 16.4152 71.965 16.1652 71.5025 16.1652ZM72.5374 18.7749C72.5224 18.215 72.1675 17.92 71.4825 17.9V17.9025C71.3576 17.9025 71.2801 17.9026 71.1626 17.9276V19.6223C71.2794 19.6602 71.4028 19.6739 71.525 19.6624C72.0375 19.6324 72.5524 19.3349 72.5374 18.7749Z" />
			<path fill="white"
				d="M73.7198 16.1977C73.7223 16.1552 73.7223 16.1227 73.7148 16.0728L73.7248 16.0777C73.7123 15.9902 73.6998 15.9453 73.6748 15.8703L73.6573 15.8202H74.3197L74.2947 15.8703C74.2685 15.9227 74.2595 15.9636 74.2493 16.0098L74.2447 16.0303C74.2341 16.0772 74.2343 16.1132 74.2346 16.1539L74.2347 16.1752V18.55C74.2356 18.6881 74.2644 18.8247 74.3194 18.9514C74.3744 19.0781 74.4544 19.1924 74.5547 19.2874C74.6655 19.3938 74.7964 19.4769 74.9398 19.5318C75.0832 19.5868 75.2361 19.6125 75.3896 19.6074C75.5239 19.6143 75.6582 19.5934 75.784 19.546C75.9099 19.4985 76.0245 19.4255 76.1208 19.3316C76.217 19.2377 76.2928 19.1248 76.3434 19.0002C76.3939 18.8756 76.4181 18.7419 76.4145 18.6075V16.2652C76.4162 16.1975 76.412 16.1298 76.402 16.0628C76.3895 15.9878 76.377 15.9503 76.352 15.8878L76.332 15.8378H77.0019L76.9869 15.8878C76.967 15.9437 76.9527 16.0015 76.9444 16.0602C76.9385 16.1021 76.9388 16.1344 76.9392 16.1686L76.9394 16.1952V18.6449C76.9394 19.4349 76.272 20.0423 75.3896 20.0598H75.3646C74.9007 20.0598 74.4548 19.8807 74.1198 19.5598C73.991 19.435 73.889 19.2853 73.8198 19.1199C73.7506 18.9545 73.7158 18.7768 73.7173 18.5975V16.2477L73.7198 16.1977Z" />
			<path fill-rule="evenodd" clip-rule="evenodd" fill="white"
				d="M77.6969 16.4402C77.6999 16.3103 77.689 16.1804 77.6644 16.0528L77.6619 16.0577C77.6544 16.0077 77.6369 15.9753 77.6119 15.9328L77.5619 15.8453H78.8517C79.1567 15.8453 79.4442 15.9578 79.6366 16.1577C79.7217 16.2456 79.7879 16.3498 79.8314 16.4642C79.8748 16.5785 79.8944 16.7005 79.8891 16.8226C79.8856 16.9718 79.8504 17.1186 79.7857 17.253C79.7211 17.3875 79.6285 17.5067 79.5142 17.6026C79.3279 17.7614 79.0888 17.8444 78.8442 17.835C78.9491 17.933 79.0461 18.0392 79.1342 18.1525L80.1191 19.4024C80.1649 19.4529 80.2067 19.506 80.2475 19.5579C80.3137 19.642 80.3774 19.723 80.4516 19.7848L80.6565 19.9473L80.744 20.0123H79.9741L78.3243 17.8626L78.2893 17.8125C78.2678 17.779 78.2407 17.7495 78.2093 17.7251V19.5798C78.2073 19.6267 78.213 19.6675 78.2192 19.7118C78.2209 19.7241 78.2227 19.7368 78.2243 19.7499C78.2307 19.8009 78.2425 19.8338 78.2566 19.8732L78.2643 19.8948L78.2993 19.9948H77.5919L77.6369 19.9048L77.6436 19.8914C77.6628 19.8535 77.6771 19.8252 77.6794 19.7848L77.6969 19.3724V16.4402ZM78.2143 16.1952V17.5526C78.2968 17.5626 78.4218 17.5651 78.5318 17.5601C79.0842 17.5176 79.3992 17.2351 79.3667 16.8052C79.3467 16.4677 79.2392 16.1553 78.6093 16.1303C78.4744 16.1211 78.3392 16.1433 78.2143 16.1952Z" />
			<path fill="white"
				d="M81.0415 16.1828C81.0415 16.1203 81.0315 16.0752 81.0015 16.0252L80.9715 15.9927C80.9465 15.9402 80.9215 15.9103 80.8715 15.8803L80.759 15.8153H81.5089L84.3411 19.0249V16.4202L84.3413 16.3681C84.3418 16.251 84.3423 16.148 84.3161 16.0127L84.2811 15.8627L84.2661 15.8077H84.8211L84.8061 15.8578C84.7836 15.9253 84.7736 15.9702 84.7636 16.0352C84.7486 16.1227 84.7486 16.1678 84.7486 16.2477L84.7536 20.1648L81.4489 16.5152V19.4874C81.4489 19.6049 81.4489 19.6049 81.4864 19.7798C81.4927 19.8175 81.5025 19.8482 81.5128 19.8806L81.5189 19.8998L81.5364 19.9548L81.5514 19.9998H80.9165L80.9565 19.9448C80.9965 19.8898 81.0115 19.8598 81.0215 19.8098C81.0415 19.7298 81.0415 19.6774 81.0415 19.5974V16.1828Z" />
			<path fill="white"
				d="M85.5135 16.1452C85.5142 16.0896 85.504 16.0344 85.4835 15.9827L85.531 16.0103C85.5135 15.9703 85.4985 15.9453 85.4635 15.9103L85.401 15.8503H87.6058V16.3802L87.5458 16.3202C87.5008 16.2752 87.4633 16.2527 87.4008 16.2302C87.3396 16.2082 87.2928 16.2101 87.2346 16.2126L87.2308 16.2127H86.0859V17.4626H87.6058V17.9425L87.5558 17.9176C87.4483 17.8801 87.3933 17.8626 87.3058 17.8426C87.2433 17.8326 87.1959 17.8326 87.1309 17.8326H86.0709V19.5898H87.3208C87.5133 19.5898 87.5933 19.5798 87.7632 19.5248C87.8272 19.5079 87.8874 19.4791 87.9407 19.4398L88.0257 19.3848L87.8457 19.9648H85.396L85.436 19.9098C85.4685 19.8623 85.486 19.8173 85.501 19.7673C85.5137 19.721 85.5179 19.6727 85.5135 19.6248V16.1452Z" />
			<path fill="white"
				d="M54.9269 25.6517C54.9269 26.4416 54.2595 27.0491 53.3771 27.0666L53.3596 27.0441C52.8995 27.0528 52.4541 26.8825 52.1172 26.5691C51.9885 26.4443 51.8864 26.2946 51.8173 26.1292C51.7481 25.9637 51.7132 25.786 51.7147 25.6067V23.207C51.7178 23.1644 51.7161 23.1217 51.7097 23.0795C51.6993 23.009 51.6825 22.9395 51.6597 22.872L51.6423 22.822H52.3047L52.2797 22.872C52.2497 22.927 52.2397 22.9645 52.2297 23.032C52.219 23.0768 52.2193 23.1125 52.2196 23.1532L52.2197 23.1745V25.5542C52.2197 25.8292 52.3322 26.0916 52.5397 26.2916C52.7596 26.5065 53.0646 26.6241 53.3746 26.6116C53.5089 26.6185 53.6431 26.5976 53.769 26.5501C53.8948 26.5026 54.0094 26.4297 54.1057 26.3358C54.202 26.2419 54.2777 26.1291 54.3283 26.0044C54.3788 25.8798 54.4031 25.7461 54.3994 25.6117V23.2694L54.3996 23.2375C54.3999 23.1779 54.4001 23.1291 54.3894 23.0694C54.3793 23.0094 54.3625 22.9508 54.3395 22.8945L54.3195 22.8445H54.9894L54.9744 22.8945C54.9541 22.9512 54.9398 23.0098 54.9319 23.0694C54.9259 23.113 54.9263 23.1424 54.9267 23.1776L54.9269 23.207V25.6517Z" />
			<path fill="white"
				d="M56.1657 26.8849L56.1717 26.9041L56.1692 26.9115L56.1867 26.9615L56.2017 27.0065H55.5668L55.6068 26.9515C55.6468 26.8965 55.6618 26.8666 55.6718 26.8166C55.6918 26.7366 55.6918 26.684 55.6918 26.604V23.1894C55.6918 23.1269 55.6818 23.082 55.6518 23.032C55.6317 22.9837 55.5955 22.9439 55.5493 22.9194L55.4393 22.8545H56.1842L58.9939 26.0616V23.4544C58.9989 23.3145 58.9989 23.202 58.9689 23.047L58.9339 22.897L58.9189 22.842H59.4739L59.4589 22.892C59.4387 22.9487 59.4245 23.0074 59.4164 23.067C59.4014 23.1545 59.4014 23.1969 59.4014 23.2794L59.4064 27.1965L56.1018 23.5469V26.4916C56.1018 26.6091 56.1018 26.6091 56.1393 26.7841C56.1455 26.8217 56.1553 26.8524 56.1657 26.8849Z" />
			<path fill="white"
				d="M60.8737 22.912L60.8112 23.062L60.8037 23.0845C60.7687 23.2094 60.7687 23.2445 60.7687 23.3019V26.3066C60.7687 26.489 60.7687 26.6716 60.7837 26.8066C60.798 26.857 60.8227 26.9038 60.8562 26.944L60.8887 26.999H60.1213L60.1563 26.944C60.1863 26.899 60.2013 26.869 60.2163 26.819C60.2488 26.749 60.2488 26.6991 60.2488 26.6191V23.2945C60.2514 23.2255 60.2403 23.1566 60.2163 23.0919C60.1981 23.0297 60.1702 22.9707 60.1338 22.917L60.0988 22.862H60.8987L60.8737 22.912Z" />
			<path fill="white"
				d="M61.2537 22.8695H62.0911L62.0561 22.9445C62.0336 22.9745 62.0311 22.9895 62.0311 23.0245C62.0311 23.0572 62.0398 23.079 62.0533 23.1124L62.0561 23.1195L63.4909 26.1191L64.8408 23.2295L64.8658 23.1794L64.8745 23.1614C64.8912 23.1271 64.9058 23.0972 64.9058 23.0545C64.9058 23.0045 64.9008 22.9694 64.8858 22.9194L64.8708 22.8745H65.5607L65.5157 22.932C65.467 22.9935 65.4243 23.0597 65.3882 23.1295V23.132C65.3558 23.1813 65.3274 23.2331 65.3032 23.2869L63.4834 27.1565L61.5237 23.152C61.5178 23.141 61.513 23.1307 61.5083 23.1205C61.4991 23.1004 61.4902 23.081 61.4737 23.0594C61.4387 22.9994 61.4112 22.9695 61.3537 22.9345L61.2537 22.8695Z" />
			<path fill="white"
				d="M66.0332 27.0265L66.0731 26.9691L66.0956 26.9915C66.1281 26.944 66.1456 26.9015 66.1606 26.8515C66.1756 26.8015 66.1756 26.7615 66.1731 26.7115L66.1706 26.6541V23.2295C66.1714 23.1739 66.1612 23.1187 66.1406 23.067C66.1231 23.027 66.1081 23.002 66.0731 22.967L66.0132 22.907H68.2179V23.4369L68.1579 23.3769C68.1129 23.3319 68.0754 23.3094 68.0129 23.2869C67.9504 23.2644 67.9029 23.2644 67.843 23.2694L67.773 23.272H66.6981V24.5218H68.2179V25.0017L68.1679 24.9767C68.097 24.9428 68.0224 24.9177 67.9454 24.9017C67.883 24.8917 67.8355 24.8917 67.7706 24.8917H66.7131V26.649H67.9629C68.1554 26.649 68.2354 26.639 68.4054 26.5841C68.4729 26.5641 68.5154 26.5441 68.5804 26.5016L68.6629 26.4466L68.4829 27.0265H66.0332Z" />
			<path fill-rule="evenodd" clip-rule="evenodd" fill="white"
				d="M72.005 26.8366L72.21 26.999L72.3075 27.064H71.5375L69.8877 24.9142L69.8527 24.8643L69.8464 24.8558C69.8271 24.8299 69.8112 24.8084 69.7727 24.7768V26.6341L69.7877 26.8041C69.7944 26.8548 69.8068 26.8899 69.8217 26.9318L69.8277 26.949L69.8627 27.049H69.1528L69.1978 26.9615C69.2203 26.9165 69.2353 26.8865 69.2403 26.8415L69.2553 26.4291V23.4969C69.2577 23.367 69.2469 23.2372 69.2228 23.1095C69.2103 23.0595 69.1928 23.0269 69.1678 22.9844L69.1178 22.897H70.4077C70.7126 22.897 71.0001 23.0095 71.1926 23.2095C71.2775 23.2979 71.3435 23.4026 71.3865 23.5174C71.4294 23.6321 71.4485 23.7545 71.4425 23.8769C71.4384 24.0252 71.4028 24.171 71.3381 24.3046C71.2735 24.4381 71.1813 24.5565 71.0676 24.6518C70.8976 24.8143 70.6401 24.8968 70.3977 24.8843C70.5202 25.0017 70.5876 25.0718 70.6876 25.2018L71.68 26.4616C71.7256 26.5111 71.7676 26.5645 71.809 26.6172C71.8722 26.6975 71.934 26.7762 72.005 26.8366ZM70.1552 23.1845C69.9927 23.1845 69.8952 23.192 69.7602 23.2495L69.7577 24.6068C69.8641 24.6163 69.971 24.6188 70.0777 24.6143C70.6301 24.5718 70.9426 24.2893 70.9126 23.8594C70.8926 23.5394 70.7851 23.2095 70.1552 23.1845Z" />
			<path fill="white"
				d="M73.3698 26.7316C72.9949 26.7266 72.7324 26.7066 72.4349 26.4617L72.3775 26.4116V26.9416L72.4025 26.9491C72.6996 27.0611 72.9113 27.0664 73.1972 27.0735L73.2199 27.0741L73.3273 27.0766H73.3973C73.7573 27.0766 74.3472 27.0166 74.6897 26.6666C74.8772 26.4767 74.9397 26.2267 74.9547 25.9242C74.9298 25.2833 74.5915 25.0917 74.1629 24.8489L74.1548 24.8443L74.0048 24.7618L73.3548 24.3869C73.0874 24.2369 72.9174 24.0869 72.8899 23.8194C72.8774 23.662 72.9324 23.5144 73.0524 23.3945C73.2074 23.2345 73.4573 23.137 73.7023 23.137L73.7523 23.1395C74.0623 23.1495 74.2847 23.197 74.5022 23.4095L74.5622 23.467V22.942L74.5372 22.932C74.3103 22.8443 74.0679 22.8034 73.8248 22.812L73.7048 22.8096H73.6498C73.2499 22.8096 72.8749 22.947 72.6324 23.1795C72.4449 23.362 72.3475 23.5945 72.35 23.8545C72.355 24.2669 72.5499 24.5543 73.0074 24.8293L73.7523 25.2543C74.0773 25.4368 74.3622 25.6292 74.3622 26.0042C74.3622 26.2117 74.2972 26.3792 74.1623 26.5042C73.9873 26.6716 73.7123 26.7541 73.3573 26.7416L73.3698 26.7316Z" />
			<path fill="white"
				d="M76.1145 22.8595L76.0895 22.9095L76.087 22.902L76.0245 23.052L75.9895 23.0445L76.022 23.0545C75.9871 23.182 75.9871 23.2144 75.9871 23.2744V26.2741C75.9871 26.4814 75.9871 26.6642 76.002 26.799C76.012 26.839 76.027 26.864 76.077 26.939L76.1095 26.994H75.3421L75.3771 26.939C75.407 26.8892 75.4221 26.864 75.4371 26.8141C75.4696 26.7441 75.4696 26.6941 75.4696 26.6141V23.2895C75.4696 23.2145 75.4596 23.1595 75.4371 23.0895C75.4146 23.0195 75.3946 22.9745 75.3546 22.9145L75.3196 22.8595H76.1145Z" />
			<path fill="white"
				d="M76.8919 23.2345H77.8843V26.6841L77.8846 26.6897C77.887 26.7371 77.889 26.776 77.8793 26.8241C77.8693 26.8741 77.8543 26.904 77.8293 26.949L77.7993 26.9991H78.5568L78.5243 26.9441C78.4918 26.8891 78.4743 26.8565 78.4693 26.809C78.4443 26.6841 78.4443 26.6741 78.4443 26.6291V23.212H79.3017C79.3867 23.212 79.4442 23.222 79.5317 23.2495C79.5933 23.2625 79.6554 23.2835 79.7116 23.312L79.7691 23.337L79.7241 22.8745L79.7216 22.8421H76.592L76.482 23.3719L76.552 23.3294C76.6141 23.2881 76.6838 23.2592 76.757 23.2445C76.807 23.2295 76.8394 23.2245 76.8894 23.2245L76.8919 23.2345Z" />
			<path fill="white"
				d="M83.0738 23.2345L83.1937 23.0595C83.2337 23.0045 83.2687 22.967 83.3262 22.9095L83.3937 22.847H82.7038L82.7088 22.887C82.7138 22.922 82.7138 22.947 82.7088 22.9795C82.7038 23.012 82.6838 23.0545 82.6538 23.0945L81.7539 24.5193L80.929 23.1845L80.9165 23.167C80.884 23.117 80.8615 23.082 80.8415 23.027C80.8232 22.9767 80.8258 22.9515 80.8302 22.9093L80.8315 22.8971V22.857H80.0316L80.1116 22.9195C80.1566 22.957 80.1866 22.9845 80.2166 23.0195L80.2266 23.032L80.3266 23.182L81.4314 24.9193V26.7441C81.4339 26.8015 81.4339 26.8191 81.4264 26.8491L81.422 26.8682C81.4162 26.894 81.4093 26.9243 81.3914 26.9641L81.3664 27.014H82.0014L81.9864 26.9641L81.9614 26.8716L81.9564 26.8466C81.9464 26.7966 81.9414 26.7616 81.9414 26.7166V24.9168L83.0738 23.2345Z" />
			<path fill-rule="evenodd" clip-rule="evenodd" fill="white"
				d="M87.5408 22.762C86.9958 22.762 86.4784 22.9745 86.0784 23.3619C85.6785 23.7494 85.4285 24.3168 85.4285 24.8618C85.4283 25.4168 85.6453 25.9498 86.033 26.3468C86.4208 26.7439 86.9485 26.9735 87.5033 26.9866H87.5533C88.116 26.9865 88.6563 26.7657 89.0581 26.3716C89.2574 26.1724 89.4141 25.9347 89.5185 25.673C89.6229 25.4113 89.673 25.131 89.6655 24.8493C89.6612 24.2982 89.4429 23.7704 89.0567 23.3772C88.6705 22.984 88.1467 22.7563 87.5958 22.742H87.5358L87.5408 22.762ZM87.5658 23.1695C88.4607 23.1845 89.1406 23.9194 89.1556 24.8743C89.1555 25.1124 89.1082 25.3481 89.0164 25.5678C88.9245 25.7875 88.79 25.9868 88.6206 26.1541C88.3369 26.4384 87.9524 26.5992 87.5508 26.6016C86.6309 26.5816 85.9509 25.8167 85.9659 24.8643C85.9809 24.0394 86.5409 23.172 87.5458 23.172L87.5658 23.1695Z" />
			<path fill="white"
				d="M90.8254 23.2244V24.4943L92.3577 24.5168V24.9293L92.2677 24.9093C92.2247 24.8967 92.1801 24.89 92.1353 24.8893H90.8454V26.3466L90.8779 26.8465C90.8802 26.8714 90.8865 26.886 90.8932 26.9015L90.8985 26.9136C90.9049 26.9283 90.9111 26.9424 90.9154 26.964L90.9254 27.0065H90.2255L90.2555 26.9565C90.283 26.9096 90.304 26.8592 90.318 26.8066C90.3255 26.7591 90.3255 26.7215 90.323 26.6715L90.3205 26.6016V23.177C90.3205 23.1256 90.3065 23.0761 90.2946 23.0341L90.2905 23.0194C90.2803 22.9828 90.2618 22.9561 90.2418 22.9272L90.228 22.907L90.188 22.852H92.3552V23.3694L92.2902 23.3194C92.2807 23.3119 92.2723 23.3048 92.2644 23.2981C92.2328 23.2714 92.2092 23.2514 92.1553 23.2395C92.102 23.2276 92.055 23.2267 92.0006 23.2256L91.979 23.2251L91.9553 23.2244H90.8254Z" />
			<path fill="white"
				d="M52.7321 30.4186L52.8421 29.8887L55.9743 29.8812L56.0243 30.3811L55.9668 30.3512C55.9107 30.3224 55.8485 30.3014 55.7868 30.2886C55.6993 30.2636 55.6443 30.2537 55.5568 30.2537H54.6994V33.6708C54.6944 33.7133 54.6944 33.7207 54.7194 33.8457C54.7244 33.8957 54.7444 33.9308 54.7744 33.9808L54.8069 34.0358H54.0495L54.0795 33.9857C54.0843 33.976 54.0889 33.9672 54.0932 33.9591C54.1109 33.9251 54.1234 33.901 54.1295 33.8608C54.137 33.8108 54.137 33.7708 54.1345 33.7208V30.2711H53.1396C53.0946 30.2703 53.0498 30.2771 53.0071 30.2911C52.9271 30.3086 52.8721 30.3336 52.8021 30.3761L52.7321 30.4186Z" />
			<path fill="white"
				d="M58.534 33.6633C58.6842 33.6689 58.8342 33.6469 58.9764 33.5983L59.0114 33.6233C59.0754 33.6064 59.1356 33.5776 59.1889 33.5383L59.2714 33.4833L59.0914 34.0632H56.6417L56.6817 34.0082C56.7142 33.9607 56.7317 33.9182 56.7467 33.8682C56.7594 33.8219 56.7636 33.7736 56.7592 33.7257V30.2437C56.7592 30.1812 56.7492 30.1387 56.7292 30.0812C56.7117 30.0412 56.6967 30.0162 56.6617 29.9812L56.6017 29.9212H58.8065V30.4511L58.7465 30.3911C58.7015 30.3461 58.664 30.3236 58.6015 30.3011C58.5403 30.2791 58.4935 30.2811 58.4353 30.2835L58.4315 30.2837L58.3615 30.2862H57.2866V31.536H58.7865V32.0159L58.7365 31.9909C58.6657 31.9568 58.591 31.9316 58.514 31.9159C58.4569 31.9072 58.3992 31.9039 58.3415 31.9059H57.2841V33.6633H58.534Z" />
			<path fill="white"
				d="M61.6986 33.7134C61.1537 33.7233 60.6663 33.5458 60.3238 33.2034C60.1645 33.0449 60.0399 32.8551 59.9577 32.646C59.8755 32.4369 59.8376 32.213 59.8463 31.9885C59.8513 31.4886 60.0413 31.0386 60.3763 30.7137C60.7112 30.3887 61.1462 30.2262 61.6336 30.2262C61.977 30.214 62.3165 30.3017 62.611 30.4787L62.661 30.5087V30.0237L62.636 30.0137C62.3273 29.8833 61.9935 29.8226 61.6586 29.8362H61.6336C61.318 29.8292 61.004 29.8846 60.7097 29.9991C60.4155 30.1136 60.1467 30.2851 59.9188 30.5037C59.7245 30.6987 59.571 30.9304 59.4671 31.1853C59.3633 31.4402 59.3112 31.7133 59.3139 31.9885C59.3164 32.576 59.5439 33.1134 59.9538 33.5033C60.3638 33.8933 60.9437 34.1158 61.5787 34.1158H61.7036L61.7636 34.1133C62.1136 34.1033 62.3511 34.0958 62.6985 33.9683L62.7135 33.9633L62.9835 33.2984L62.8835 33.3659C62.5325 33.6026 62.1169 33.7248 61.6936 33.7158L61.6986 33.7134Z" />
			<path fill="white"
				d="M66.6356 33.6508C66.6356 33.7108 66.6406 33.7583 66.6556 33.8258L66.7181 33.9058C66.7312 33.9602 66.7523 34.0124 66.7806 34.0607L66.8056 34.1108H66.0631L66.1131 34.0533C66.1524 34.0079 66.1784 33.9525 66.1881 33.8933V31.9685H64.0434V33.5833L64.0409 33.6733C64.0359 33.7358 64.0334 33.7858 64.0659 33.9233C64.0759 33.9558 64.0909 33.9808 64.1159 34.0133L64.1734 34.0983H63.4059L63.4484 34.0407C63.4747 34.0074 63.4973 33.9714 63.5159 33.9333C63.5334 33.8783 63.5334 33.8333 63.5334 33.7708V30.3536C63.5334 30.2787 63.5334 30.2287 63.5134 30.1537C63.4884 30.0962 63.4684 30.0612 63.4259 30.0037L63.3834 29.9462H64.1334L64.1009 29.9962C64.0784 30.0281 64.0685 30.0544 64.0576 30.0834C64.054 30.0931 64.0502 30.1031 64.0459 30.1137L64.0384 30.1337C64.0081 30.2036 64.0082 30.2669 64.0084 30.3622L64.0084 30.3837V31.5486H66.1581V30.3162L66.1584 30.3107C66.1608 30.2536 66.1625 30.2119 66.1431 30.1562C66.1278 30.0904 66.095 30.0299 66.0481 29.9812L65.9932 29.9212H66.7431L66.7181 29.9712C66.6933 30.0241 66.674 30.0794 66.6606 30.1362C66.6331 30.2337 66.6331 30.3087 66.6356 30.4012V33.6508Z" />
			<path fill="white"
				d="M70.8176 30.1112L70.7851 29.9762L70.7451 29.8788H71.3001L71.2851 29.9287C71.2626 29.9962 71.2526 30.0387 71.2426 30.1037C71.2276 30.1912 71.2276 30.2337 71.2276 30.3161L71.2326 34.2308L67.9279 30.5811V33.5258C67.9279 33.6433 67.9279 33.6433 67.9654 33.8183C67.9729 33.8683 67.9829 33.9008 67.9979 33.9433L68.0279 34.0382H67.3905L67.4305 33.9808L67.4331 33.9771C67.4665 33.9294 67.4857 33.9019 67.4955 33.8483C67.5155 33.7683 67.5155 33.7183 67.5155 33.6358V30.2237C67.5155 30.1612 67.5005 30.1187 67.4755 30.0662C67.4505 30.0137 67.4255 29.9837 67.3755 29.9537L67.2655 29.8888H68.0104L70.8451 33.1233V30.5161C70.8512 30.3805 70.842 30.2447 70.8176 30.1112Z" />
			<path fill-rule="evenodd" clip-rule="evenodd" fill="white"
				d="M73.2155 29.9707C73.477 29.8681 73.7565 29.8189 74.0373 29.8262L74.0323 29.8037C74.5832 29.8179 75.107 30.0457 75.4932 30.4389C75.8794 30.8321 76.0977 31.3599 76.102 31.911C76.1098 32.1931 76.06 32.4738 75.9555 32.736C75.8511 32.9982 75.6942 33.2363 75.4946 33.4358C75.0996 33.7983 74.5547 34.0483 73.9898 34.0483H73.9398C73.385 34.0352 72.8573 33.8056 72.4696 33.4086C72.0818 33.0115 71.8648 32.4785 71.865 31.9235C71.865 31.3786 72.1025 30.8236 72.5149 30.4237C72.7158 30.2273 72.9541 30.0733 73.2155 29.9707ZM75.5921 31.936C75.5771 30.9811 74.8972 30.2462 74.0023 30.2312L73.9848 30.2337C72.9799 30.2337 72.4199 31.1011 72.4049 31.926C72.3899 32.8809 73.0699 33.6433 73.9898 33.6633C74.3902 33.6609 74.7736 33.5011 75.0571 33.2184C75.2268 33.0507 75.3615 32.8511 75.4534 32.6309C75.5452 32.4108 75.5924 32.1746 75.5921 31.936Z" />
			<path fill="white"
				d="M78.8742 33.6483C78.9683 33.6497 79.0617 33.6326 79.1492 33.5983L79.1542 33.5758L79.156 33.5753C79.182 33.5682 79.1889 33.5664 79.2867 33.4808L79.3442 33.5209L79.1592 34.0158H76.697L76.737 33.9583C76.7645 33.9183 76.782 33.8883 76.797 33.8508C76.822 33.7883 76.822 33.7433 76.822 33.6758V30.2962C76.822 30.2162 76.817 30.1712 76.797 30.0962C76.777 30.0362 76.757 29.9887 76.7145 29.9287L76.6745 29.8712H77.4369L77.4119 29.9212C77.387 29.968 77.3677 30.0175 77.3544 30.0687C77.3269 30.1612 77.3269 30.2287 77.3294 30.3237L77.3344 33.6533L78.8742 33.6483Z" />
			<path fill-rule="evenodd" clip-rule="evenodd" fill="white"
				d="M81.4864 29.7988H81.4264C80.8815 29.7988 80.3641 30.0112 79.9641 30.3987C79.5517 30.7986 79.3142 31.3536 79.3142 31.8985C79.314 32.4535 79.531 32.9865 79.9187 33.3836C80.3065 33.7806 80.8341 34.0103 81.389 34.0233H81.4389C82.0017 34.0232 82.542 33.8024 82.9438 33.4084C83.1431 33.2092 83.2998 32.9715 83.4042 32.7098C83.5086 32.448 83.5586 32.1677 83.5512 31.886C83.5469 31.3349 83.3285 30.8071 82.9424 30.4139C82.5562 30.0208 82.0324 29.793 81.4814 29.7788L81.4864 29.7988ZM81.4514 30.2037C82.3463 30.2187 83.0263 30.9536 83.0413 31.9085C83.0415 32.1471 82.9944 32.3833 82.9025 32.6034C82.8107 32.8236 82.676 33.0232 82.5063 33.1909C82.2228 33.4736 81.8394 33.6334 81.4389 33.6359C80.5141 33.6159 79.8391 32.8534 79.8516 31.8985C79.8666 31.0736 80.4266 30.2062 81.4314 30.2062L81.4514 30.2037Z" />
			<path fill="white"
				d="M87.2058 31.9786L87.2076 31.9805C87.264 32.0418 87.2986 32.0794 87.3233 32.1635C87.366 32.294 87.3659 32.402 87.3658 32.5346L87.3658 33.3933C87.0458 33.5758 86.7958 33.6434 86.4759 33.6359C86.2385 33.6507 86.0005 33.6184 85.7757 33.5407C85.5508 33.4631 85.3436 33.3416 85.166 33.1834C84.8286 32.8709 84.6361 32.4335 84.6161 31.9461C84.6071 31.7162 84.6436 31.4868 84.7234 31.2711C84.8032 31.0553 84.9247 30.8574 85.081 30.6886C85.381 30.3787 85.791 30.1887 86.2759 30.2037C86.6184 30.2037 87.0183 30.2362 87.4008 30.4662L87.4558 30.4987V29.9912L87.4308 29.9812C87.0358 29.8313 86.7634 29.8162 86.3559 29.8063H86.3309C85.016 29.8063 84.1211 30.6636 84.1012 31.9485C84.0937 32.5084 84.3111 33.0334 84.7161 33.4284C85.141 33.8408 85.716 34.0658 86.3409 34.0658H86.4534C87.0483 34.0408 87.5708 33.8283 87.8332 33.6558L87.8507 33.6459L87.8457 32.2144C87.8454 32.1739 87.8453 32.1458 87.8607 32.106V32.1035C87.8757 32.0535 87.8932 32.0235 87.9307 31.9735L87.9757 31.916H87.1458L87.2058 31.9786Z" />
			<path fill="white"
				d="M90.6779 30.0112C90.6829 29.9812 90.6829 29.9563 90.6779 29.9213L90.6579 29.8763H91.3478L91.2803 29.9387C91.2309 29.9829 91.1865 30.0323 91.1479 30.0862L89.908 31.946V33.7458C89.908 33.7908 89.913 33.8208 89.923 33.8758L89.9305 33.9008C89.9322 33.9076 89.9338 33.9141 89.9353 33.9205C89.9406 33.9427 89.9458 33.9643 89.9555 33.9933L89.9705 34.0433H89.3356L89.3606 33.9933C89.3785 33.9535 89.3853 33.9232 89.3911 33.8974C89.3926 33.8908 89.394 33.8844 89.3956 33.8783C89.4031 33.8483 89.4031 33.8333 89.4006 33.7733V31.9485L88.2957 30.2112L88.1957 30.0612L88.1907 30.0562C88.1557 30.0162 88.1307 29.9887 88.0807 29.9487L88.0007 29.8863H88.8006V29.9262C88.8002 29.9301 88.7999 29.9338 88.7995 29.9374C88.795 29.9806 88.7922 30.008 88.8106 30.0587C88.8306 30.1137 88.8531 30.1487 88.8856 30.1987L88.8981 30.2162L89.723 31.551L90.6229 30.1262C90.6529 30.0812 90.6729 30.0412 90.6779 30.0112Z" />
		</g>
	</g>
	<defs>
		<clipPath id="clip0_140_81">
			<rect width="96" height="73" fill="white" transform="translate(0 0.5)" />
		</clipPath>
		<clipPath id="clip1_140_81">
			<rect width="96" height="48" fill="white" transform="translate(0 1)" />
		</clipPath>
	</defs>
</svg>
